<?xml version="1.0" standalone="no"?>
<!DOCTYPE svg PUBLIC "-//W3C//DTD SVG 20010904//EN"
 "http://www.w3.org/TR/2001/REC-SVG-20010904/DTD/svg10.dtd">
<svg version="1.0" xmlns="http://www.w3.org/2000/svg"
 width="3137.345463pt" height="3027.694880pt" viewBox="0 0 3137.345463 3027.694880"
 preserveAspectRatio="xMidYMid meet">
<metadata>
Created by potrace 1.13, written by Peter Selinger 2001-2015
</metadata>
<g transform="translate(-249.269633,3187.424299) scale(0.100000,-0.100000)"
fill="#000000" stroke="none">
<path d="M11640 31870 c-25 -5 -68 -6 -96 -3 -29 3 -83 -2 -129 -11 -52 -11
-99 -14 -140 -10 -55 6 -69 3 -111 -19 -27 -14 -74 -31 -104 -37 -30 -7 -93
-26 -140 -41 -47 -16 -114 -33 -150 -39 -36 -5 -119 -21 -185 -35 -66 -14
-136 -28 -155 -31 -19 -3 -55 -15 -80 -26 -25 -11 -74 -23 -110 -25 -52 -4
-72 -11 -101 -33 -35 -28 -38 -28 -130 -23 -90 5 -96 4 -132 -21 -22 -15 -67
-36 -100 -47 -34 -11 -89 -29 -122 -40 -34 -11 -112 -24 -175 -29 -175 -14
-469 -81 -520 -118 -41 -31 -112 -52 -134 -40 -10 5 -35 7 -55 3 -83 -15 -217
-48 -225 -56 -6 -5 -27 -9 -49 -9 -21 0 -69 -13 -105 -29 -37 -16 -103 -42
-147 -57 -44 -15 -93 -36 -109 -45 -18 -11 -40 -15 -61 -12 -23 4 -50 -4 -98
-27 -36 -17 -91 -35 -122 -39 -31 -4 -61 -13 -67 -19 -7 -7 -39 -12 -71 -12
-53 0 -69 -6 -146 -49 -55 -31 -112 -55 -158 -65 -44 -10 -115 -39 -185 -75
-62 -32 -125 -61 -140 -65 -31 -7 -142 -71 -159 -92 -6 -8 -18 -14 -25 -14 -7
0 -23 -13 -36 -30 -12 -16 -29 -30 -37 -30 -22 0 -48 -17 -120 -72 -33 -26
-78 -58 -99 -72 -21 -13 -45 -30 -53 -38 -35 -34 -106 -86 -124 -92 -12 -3
-28 -19 -38 -35 -9 -16 -33 -39 -52 -51 -19 -12 -35 -26 -35 -31 0 -4 -32 -30
-72 -56 -40 -27 -95 -75 -123 -109 -27 -33 -69 -72 -91 -86 -49 -30 -87 -103
-98 -186 -10 -79 -41 -131 -100 -175 -29 -20 -63 -56 -77 -79 -13 -23 -40 -58
-60 -77 -20 -20 -42 -56 -49 -80 -10 -31 -25 -50 -52 -69 -21 -13 -38 -30 -38
-36 0 -22 -91 -191 -117 -218 -19 -20 -28 -44 -35 -90 -8 -60 -29 -98 -53 -98
-7 0 -20 -9 -29 -19 -14 -15 -17 -35 -15 -93 2 -97 -12 -163 -45 -197 -15 -16
-26 -39 -26 -55 0 -15 -7 -41 -16 -57 -9 -19 -13 -41 -9 -58 4 -18 -3 -52 -20
-96 -14 -37 -25 -85 -25 -108 0 -22 -8 -54 -19 -71 -15 -25 -17 -41 -12 -83 4
-29 14 -60 23 -70 37 -42 50 -94 42 -178 -4 -44 -8 -96 -9 -115 -2 -38 -27
-126 -45 -160 -6 -12 -12 -51 -12 -88 0 -36 -6 -87 -14 -112 -8 -25 -14 -75
-14 -112 0 -37 -5 -79 -10 -94 -8 -19 -7 -36 2 -61 11 -31 10 -39 -16 -86 -26
-50 -28 -59 -26 -167 2 -165 -9 -319 -24 -349 -25 -48 -50 -170 -39 -194 17
-37 7 -157 -17 -212 -18 -42 -21 -62 -17 -124 3 -41 2 -82 -3 -91 -21 -40 -44
-392 -29 -437 4 -12 4 -36 -1 -55 -11 -41 -17 -89 -32 -248 -10 -120 -10 -127
11 -167 20 -40 20 -48 10 -125 -7 -46 -13 -116 -14 -155 -1 -40 -9 -92 -18
-115 -13 -38 -21 -102 -34 -288 -5 -80 -5 -76 -1 -305 2 -115 0 -221 -4 -234
-5 -13 -3 -61 3 -110 16 -123 19 -190 10 -214 -5 -13 -3 -34 6 -54 20 -48 27
-169 13 -243 -25 -145 -33 -268 -22 -331 6 -30 7 -87 3 -128 -5 -53 -3 -89 7
-125 17 -60 17 -75 2 -141 -7 -31 -9 -83 -5 -137 4 -52 3 -100 -4 -120 -20
-63 -11 -304 13 -363 9 -21 16 -60 16 -87 0 -27 5 -69 11 -94 10 -37 9 -48 -6
-70 -12 -19 -15 -37 -11 -63 15 -81 24 -214 25 -346 1 -101 5 -146 15 -160 7
-11 16 -51 20 -90 4 -38 12 -101 16 -140 5 -38 16 -142 25 -230 18 -176 33
-241 76 -327 16 -32 29 -70 29 -86 0 -31 61 -162 85 -182 20 -16 88 -153 110
-221 19 -58 29 -80 97 -209 17 -33 31 -77 35 -110 3 -33 19 -83 39 -126 19
-39 34 -80 34 -91 0 -11 13 -47 29 -79 16 -32 43 -90 61 -129 18 -38 39 -78
47 -87 26 -30 73 -132 73 -159 0 -18 12 -37 35 -58 20 -17 40 -31 45 -31 14 0
80 -105 80 -128 0 -11 5 -24 10 -27 18 -11 11 -54 -12 -69 -13 -8 -50 -17 -83
-21 -71 -8 -96 -22 -117 -66 -12 -24 -14 -39 -6 -61 6 -16 8 -53 4 -82 l-6
-53 48 -40 c26 -22 56 -44 67 -50 23 -13 153 -27 208 -24 20 1 57 -5 80 -14
l43 -16 89 46 c81 42 95 46 140 42 28 -3 81 2 119 10 55 12 80 13 120 4 62
-13 268 1 336 22 25 8 72 22 105 32 33 9 74 26 91 36 113 68 351 114 488 94
23 -4 54 -1 71 5 17 6 62 15 100 20 39 5 100 16 138 23 38 8 102 12 147 10 65
-3 87 0 119 17 22 11 50 20 62 20 12 0 60 16 108 35 47 19 102 37 121 39 36 5
163 31 190 39 8 3 49 10 90 17 41 7 134 32 205 55 86 28 141 41 162 38 20 -3
55 4 96 21 36 14 78 26 94 26 15 0 74 23 131 52 85 43 112 52 160 53 52 1 71
7 111 34 8 5 18 33 23 63 4 29 12 82 17 117 8 55 6 70 -11 110 -13 30 -20 73
-22 129 -2 74 0 87 17 103 12 10 25 19 29 19 5 0 29 -32 54 -70 31 -49 55 -74
78 -84 18 -8 44 -29 57 -47 30 -43 49 -58 74 -59 11 0 44 -26 75 -58 30 -32
78 -72 106 -90 56 -35 85 -64 105 -104 16 -30 43 -51 173 -135 49 -32 108 -75
132 -96 26 -23 68 -46 111 -61 88 -30 128 -51 175 -90 81 -68 104 -84 138
-100 19 -8 56 -30 81 -48 26 -18 59 -41 75 -50 16 -10 36 -22 44 -27 8 -5 44
-17 80 -26 108 -29 181 -57 209 -81 28 -23 268 -146 311 -159 14 -4 43 -17 65
-28 23 -12 71 -23 115 -27 41 -4 95 -12 120 -18 71 -18 231 -43 280 -44 78 -2
153 13 221 43 84 37 233 70 282 62 24 -4 42 -1 53 8 9 7 42 17 73 21 31 4 72
10 91 13 19 3 53 8 75 11 25 3 54 16 75 34 19 17 45 30 56 30 12 0 37 13 57
29 20 15 53 31 74 35 21 3 58 22 82 41 25 20 64 41 88 47 28 7 52 21 67 41 23
29 26 30 55 18 28 -12 34 -11 78 18 26 17 68 43 93 57 25 15 61 42 80 59 19
18 55 46 80 62 64 43 100 82 120 129 12 27 35 53 69 77 28 20 51 43 51 49 0 7
30 42 67 78 38 36 86 91 108 123 22 31 71 80 109 109 37 29 75 58 82 64 8 6
14 18 14 26 0 23 64 99 105 123 34 21 118 143 161 235 9 19 20 42 24 50 15 31
50 23 89 -19 48 -52 99 -71 160 -59 25 4 50 13 55 18 5 5 11 43 13 83 4 71 2
76 -32 123 -48 67 -49 70 -36 115 8 27 21 44 39 52 26 11 97 80 217 211 33 36
66 65 73 65 22 1 95 42 130 72 18 16 50 38 72 49 22 11 62 40 90 65 28 25 55
45 61 45 35 0 80 37 118 96 l41 64 54 0 c95 0 91 19 91 -424 0 -330 -2 -394
-19 -481 -27 -146 -31 -247 -12 -315 12 -40 15 -92 14 -181 -2 -115 0 -128 24
-180 25 -54 28 -57 96 -83 82 -32 112 -53 142 -101 50 -80 198 -125 350 -106
45 6 89 6 110 1 78 -20 150 -31 160 -25 22 14 80 114 80 139 0 15 6 39 14 54
7 15 16 54 19 87 2 33 14 85 25 115 38 105 62 175 78 235 9 33 28 94 41 136
22 71 35 128 52 239 4 25 17 65 30 89 12 24 29 73 37 110 33 144 42 178 61
221 13 30 25 90 32 170 7 69 16 150 21 180 5 30 14 89 21 130 7 41 16 83 21
93 6 11 11 74 12 141 2 68 8 131 14 143 7 12 12 44 12 72 0 61 17 149 35 176
7 12 25 52 40 90 27 67 28 72 18 164 -14 128 2 251 46 364 14 36 15 80 7 391
-6 247 -5 260 14 291 11 18 20 46 20 64 0 28 7 64 29 156 6 21 2 41 -11 67
-14 30 -16 42 -7 65 14 34 13 216 -1 278 -7 31 -6 52 1 72 14 34 20 207 18
593 -1 553 -16 821 -49 925 -10 33 -17 71 -14 85 3 14 -4 49 -15 78 -12 29
-21 65 -21 80 0 15 -12 59 -26 97 -14 39 -29 90 -34 115 -5 25 -14 65 -19 90
-25 105 -31 163 -30 306 1 83 -2 157 -6 164 -5 7 -11 54 -15 104 -8 98 -23
185 -46 256 -8 25 -14 63 -14 85 0 22 -9 72 -20 110 -11 39 -25 113 -30 165
-21 216 -34 307 -61 440 -5 25 -16 113 -24 195 -18 190 -38 309 -61 360 -9 22
-21 62 -25 89 -5 27 -20 65 -34 85 -14 21 -25 47 -25 60 0 12 -5 31 -11 42 -5
11 -16 55 -24 99 -8 44 -23 101 -35 126 -11 26 -20 55 -20 65 0 22 -34 162
-50 207 -7 18 -10 52 -7 74 4 30 0 52 -14 79 -10 21 -19 46 -19 56 0 10 -11
36 -25 58 -13 22 -25 49 -25 60 0 12 -7 48 -16 80 -9 33 -20 85 -24 115 -16
101 -28 155 -45 200 -9 25 -22 65 -28 90 -7 25 -20 56 -29 70 -10 13 -18 40
-18 59 0 19 -7 58 -15 88 -8 29 -22 79 -31 111 -19 68 -76 128 -163 170 -30
15 -59 36 -65 47 -5 11 -12 26 -16 34 -3 8 -20 19 -38 25 -56 20 -111 70 -179
165 -46 62 -80 99 -105 112 -58 30 -118 92 -118 122 0 28 -44 69 -134 125 -26
17 -64 49 -83 72 -50 58 -141 123 -188 135 -34 9 -43 17 -62 57 -18 37 -21 53
-13 72 11 31 15 189 5 206 -11 17 -103 56 -153 65 -23 4 -66 23 -95 42 -42 28
-57 33 -82 28 -46 -10 -175 -11 -224 -1 -30 6 -68 4 -114 -5 -64 -12 -75 -11
-136 9 -36 11 -103 24 -148 27 -46 3 -100 11 -120 18 -36 12 -38 14 -36 52 1
22 5 56 8 77 7 35 5 37 -47 72 -132 90 -158 114 -158 149 0 45 -58 113 -138
160 -42 25 -90 51 -107 58 -16 7 -55 32 -85 55 -37 28 -76 48 -117 59 -35 8
-94 31 -131 50 -71 35 -161 60 -270 74 -42 6 -71 16 -85 29 -12 12 -45 31 -72
43 -28 12 -64 34 -80 48 -17 15 -73 48 -125 74 -80 40 -109 49 -180 56 -57 6
-115 20 -178 45 -54 21 -110 36 -135 36 -23 0 -76 13 -117 29 -116 44 -148 52
-240 55 -47 2 -96 6 -110 10 -14 4 -44 3 -65 -2 -23 -5 -75 -5 -120 0 -44 5
-118 10 -165 12 -47 2 -107 6 -135 9 -27 3 -70 1 -95 -3z m200 -325 c69 -8
175 -15 235 -15 61 0 126 -5 145 -11 19 -6 94 -14 165 -18 126 -6 132 -7 177
-39 35 -24 68 -36 132 -47 47 -8 129 -26 183 -39 54 -14 109 -24 123 -24 14 0
56 -18 93 -41 37 -22 70 -41 72 -41 3 0 22 -11 43 -24 20 -13 66 -31 102 -40
36 -9 97 -31 135 -50 39 -19 85 -38 104 -42 19 -3 49 -15 67 -24 17 -10 85
-40 150 -65 66 -26 146 -62 179 -80 53 -30 115 -51 195 -69 30 -6 203 -173
225 -217 13 -24 14 -34 4 -45 -14 -17 -94 -18 -159 -2 -25 6 -94 10 -153 10
-72 0 -119 4 -142 14 -19 8 -52 14 -73 14 -21 0 -56 9 -77 20 -60 31 -148 51
-223 50 -138 0 -218 5 -239 18 -23 13 -146 34 -193 34 -14 0 -57 -4 -96 -7
-57 -6 -81 -4 -117 10 -42 16 -53 16 -193 0 -148 -17 -169 -22 -212 -56 -20
-15 -42 -17 -175 -14 -83 1 -166 8 -182 14 -40 15 -281 0 -350 -22 -111 -35
-155 -42 -270 -43 -86 -1 -143 -8 -202 -23 -45 -11 -92 -21 -105 -21 -12 0
-41 -9 -63 -19 -22 -10 -61 -24 -87 -30 -27 -6 -71 -22 -100 -36 -28 -14 -66
-25 -83 -25 -47 0 -163 -45 -206 -80 -21 -16 -47 -30 -57 -30 -22 0 -63 38
-107 100 -48 67 -73 87 -138 112 -34 14 -91 45 -126 71 -35 26 -67 47 -72 47
-4 0 -49 23 -100 50 -93 50 -164 70 -255 70 -50 0 -84 -24 -113 -80 -22 -42
-21 -53 9 -160 11 -41 50 -57 105 -42 25 6 67 12 94 12 53 0 63 -6 181 -105
40 -33 82 -67 94 -75 93 -64 158 -118 201 -166 80 -90 119 -128 155 -149 42
-25 54 -63 40 -128 -7 -36 -7 -54 2 -70 15 -27 21 -165 16 -362 -2 -86 16
-330 34 -461 8 -62 8 -93 -2 -132 -6 -28 -9 -55 -6 -60 10 -16 27 -136 30
-202 1 -48 9 -80 30 -123 18 -35 28 -71 27 -90 -4 -41 -1 -116 8 -278 1 -9 20
-40 43 -69 l42 -53 1 -106 c1 -59 5 -113 10 -121 5 -7 12 -55 16 -106 4 -63
13 -104 27 -130 20 -37 30 -98 36 -209 2 -27 10 -72 19 -100 9 -27 17 -61 17
-75 0 -38 24 -97 49 -124 29 -31 36 -126 30 -412 -2 -97 0 -116 19 -153 12
-23 22 -56 22 -73 0 -18 11 -45 25 -64 23 -30 24 -34 8 -49 -22 -23 -63 -15
-155 28 -246 117 -334 157 -340 157 -7 0 -43 16 -178 78 -19 9 -49 26 -66 39
-17 13 -36 23 -43 23 -7 0 -81 29 -166 65 -84 36 -169 68 -187 71 -18 4 -52
17 -75 30 -23 13 -56 24 -74 24 -39 0 -240 55 -284 78 -41 21 -290 92 -323 92
-15 0 -41 4 -57 9 -17 5 -70 21 -120 36 -49 14 -115 39 -145 54 -30 16 -80 35
-111 44 -30 9 -72 28 -92 41 -20 14 -56 30 -79 37 -24 7 -63 27 -87 46 -24 18
-51 33 -58 33 -8 0 -47 13 -86 29 -40 16 -88 33 -107 36 -19 4 -55 17 -80 29
-59 30 -134 53 -191 60 -25 3 -83 21 -129 41 -47 19 -90 35 -96 35 -6 0 -51
16 -98 35 -48 19 -95 35 -104 35 -9 0 -89 36 -176 80 -118 59 -169 80 -198 80
-22 0 -63 11 -91 24 -85 38 -145 56 -241 71 -118 18 -173 38 -216 79 -19 18
-73 56 -120 84 -71 43 -102 55 -186 71 -81 17 -126 33 -226 84 -116 59 -131
64 -194 65 -50 1 -80 -4 -110 -18 -56 -27 -119 -83 -133 -119 -14 -33 -9 -47
43 -118 33 -45 37 -47 136 -89 36 -15 77 -36 92 -46 45 -31 188 -71 248 -70
34 1 86 -8 136 -23 45 -14 90 -25 100 -25 11 0 33 -9 49 -20 17 -11 37 -20 46
-20 9 0 32 -12 52 -27 66 -51 121 -81 187 -103 36 -13 96 -38 134 -56 39 -19
78 -34 88 -34 10 0 38 -10 61 -22 27 -13 73 -24 126 -29 80 -7 146 -31 241
-86 14 -8 41 -21 60 -29 19 -8 55 -25 80 -38 25 -14 77 -34 116 -44 39 -11 86
-28 105 -37 18 -10 58 -24 89 -31 30 -7 82 -21 115 -32 70 -23 136 -40 222
-57 35 -7 73 -19 85 -27 13 -8 40 -21 61 -27 20 -7 59 -27 85 -46 68 -46 124
-74 227 -111 50 -17 124 -46 165 -64 99 -43 298 -110 325 -110 22 0 144 -30
200 -49 17 -6 71 -18 120 -26 50 -9 108 -27 130 -39 36 -21 90 -35 200 -51 22
-4 63 -19 91 -35 29 -16 114 -46 190 -66 106 -28 149 -44 182 -69 36 -28 146
-81 317 -155 22 -9 76 -30 120 -45 44 -16 87 -34 95 -41 8 -7 44 -20 79 -29
35 -9 80 -26 100 -39 72 -45 184 -96 212 -96 17 0 35 -9 46 -24 10 -13 35 -29
56 -37 21 -7 51 -26 67 -42 17 -16 44 -30 67 -34 46 -7 76 -22 127 -62 21 -17
68 -40 105 -51 36 -11 92 -36 125 -55 108 -66 187 -97 228 -90 34 6 39 4 47
-18 6 -14 20 -28 32 -32 13 -4 40 -20 62 -36 22 -16 49 -29 60 -29 10 0 46
-20 79 -45 33 -25 70 -45 82 -45 12 0 37 -13 56 -28 19 -16 51 -34 70 -41 120
-45 148 -58 178 -83 18 -15 40 -28 48 -28 28 0 192 -87 248 -132 30 -23 67
-51 81 -61 14 -10 37 -36 50 -57 28 -44 113 -90 167 -90 35 0 78 23 78 42 0 9
41 61 98 123 10 11 32 28 50 37 22 12 34 28 42 57 10 37 52 81 78 81 5 0 25
18 43 41 19 22 52 57 73 77 21 21 56 54 78 74 21 21 51 41 66 44 47 12 157 81
172 109 8 15 31 33 51 41 19 8 53 33 73 55 23 23 72 55 121 79 79 38 85 43
109 93 14 30 43 70 66 91 35 31 45 36 78 31 47 -6 131 37 150 78 13 27 73 73
102 78 8 1 37 -1 63 -6 36 -5 58 -3 85 8 20 9 49 18 64 21 43 10 55 52 54 190
-1 69 3 121 9 126 9 7 48 14 69 11 5 -1 3 -8 -4 -16 -16 -19 -4 -35 25 -35 28
0 55 24 55 49 0 25 20 41 52 41 16 0 45 8 66 19 20 10 50 21 65 25 19 5 32 18
44 44 8 20 19 44 23 52 4 8 27 25 51 36 25 12 62 43 83 68 20 25 46 46 56 46
10 0 33 12 51 27 18 15 53 35 78 43 34 12 53 27 74 58 17 25 39 44 55 48 62
15 179 97 226 158 14 19 44 45 66 57 22 13 40 26 40 30 0 5 33 27 73 51 39 23
91 57 114 74 23 18 64 39 91 48 27 9 58 26 68 38 33 35 201 157 246 178 24 11
60 20 80 20 33 0 41 -5 63 -38 31 -47 56 -137 61 -218 2 -38 10 -74 23 -95 35
-60 52 -121 57 -214 3 -49 10 -115 16 -145 6 -30 14 -77 18 -105 4 -27 12 -72
18 -100 6 -27 16 -90 22 -139 9 -72 8 -91 -2 -98 -20 -13 -58 0 -95 33 -28 24
-43 29 -84 29 -58 0 -153 -36 -207 -78 -20 -16 -72 -42 -114 -57 -72 -25 -91
-27 -252 -29 l-174 -2 -79 -51 c-43 -28 -90 -53 -105 -57 -14 -3 -45 -26 -68
-50 -24 -25 -70 -59 -104 -77 -33 -18 -77 -44 -96 -59 -19 -14 -51 -32 -70
-40 -112 -43 -204 -95 -265 -151 -70 -64 -162 -137 -195 -154 -33 -16 -85 -48
-198 -120 -26 -17 -69 -39 -95 -49 -36 -14 -68 -41 -140 -117 -50 -55 -101
-117 -113 -137 -12 -22 -41 -49 -72 -67 -78 -46 -144 -115 -167 -175 -12 -32
-54 -92 -108 -158 -49 -58 -95 -118 -103 -134 -8 -15 -27 -34 -43 -43 -16 -8
-43 -32 -60 -54 -39 -49 -89 -81 -127 -81 -40 0 -89 -32 -117 -77 -13 -21 -32
-44 -41 -52 -11 -10 -16 -30 -16 -71 0 -32 -7 -74 -15 -93 -21 -50 -20 -53 23
-95 31 -31 41 -52 62 -130 28 -107 42 -122 135 -147 32 -8 62 -19 69 -24 6 -5
52 -27 102 -49 86 -38 177 -94 269 -166 56 -43 65 -57 60 -91 -2 -16 -7 -51
-10 -77 -8 -59 -43 -104 -102 -130 -52 -23 -69 -19 -143 34 -30 21 -93 65
-140 98 -47 34 -108 67 -137 76 -29 8 -71 31 -94 50 -22 19 -45 34 -50 34 -5
0 -28 17 -52 38 -23 21 -55 44 -72 52 -16 8 -45 25 -63 39 -18 13 -53 27 -78
32 -25 5 -58 17 -73 28 -15 11 -55 26 -90 34 -34 8 -72 24 -84 35 -12 11 -42
29 -67 40 -25 11 -67 33 -94 51 -64 40 -91 40 -115 0 -10 -17 -48 -53 -85 -80
-36 -28 -66 -54 -66 -60 0 -13 -61 -49 -85 -49 -11 0 -47 -12 -80 -26 -33 -14
-89 -34 -125 -44 -36 -10 -108 -38 -161 -64 -53 -25 -101 -46 -107 -46 -7 0
-41 -16 -77 -35 -47 -26 -80 -36 -117 -38 -50 -2 -52 -1 -79 38 -33 46 -37 91
-13 138 26 50 49 67 93 67 30 0 62 13 128 51 48 28 106 54 128 59 22 4 54 14
72 21 26 11 42 10 101 -4 86 -21 112 -21 139 -2 31 22 44 80 39 170 -4 63 -9
82 -28 102 -28 30 -62 48 -105 56 -17 3 -53 20 -80 36 -27 17 -86 39 -131 50
-121 29 -154 41 -182 66 -27 24 -82 54 -195 107 -38 17 -89 47 -113 65 -24 18
-54 33 -66 33 -13 0 -56 23 -97 50 -41 28 -83 50 -94 50 -11 0 -44 18 -74 40
-29 22 -59 40 -67 40 -7 0 -28 13 -46 28 -18 16 -55 34 -83 42 -27 7 -70 23
-93 36 -24 13 -78 30 -120 38 -80 15 -282 95 -308 121 -9 8 -27 18 -42 22 -14
3 -41 17 -60 30 -19 12 -40 23 -47 23 -7 0 -24 9 -38 20 -14 12 -41 26 -59 32
-18 6 -49 23 -68 38 -49 38 -75 50 -104 50 -14 0 -41 14 -60 31 -20 17 -52 35
-73 41 -21 5 -47 18 -58 28 -26 23 -152 90 -170 90 -8 0 -34 11 -59 25 -25 14
-51 25 -58 25 -7 0 -40 14 -73 30 -33 16 -70 30 -83 30 -31 0 -86 24 -111 49
-12 12 -30 21 -40 21 -10 0 -43 11 -73 25 -29 14 -63 25 -75 25 -11 0 -40 15
-62 34 -23 19 -65 42 -93 52 -55 18 -99 38 -179 80 -26 13 -61 24 -78 24 -40
0 -94 22 -123 50 -13 12 -50 35 -82 51 -33 16 -69 38 -80 48 -32 29 -76 48
-137 59 -31 6 -82 20 -115 31 -112 37 -183 51 -281 55 -81 3 -107 8 -151 30
-69 35 -205 76 -254 76 -43 0 -65 10 -118 51 -44 34 -100 52 -136 43 -44 -10
-109 -50 -138 -85 -37 -44 -34 -79 15 -145 47 -65 92 -99 180 -137 146 -65
192 -92 231 -139 22 -27 47 -48 55 -48 9 0 33 -18 55 -41 24 -25 55 -45 83
-53 24 -8 58 -24 75 -37 17 -13 51 -40 75 -59 24 -19 58 -46 75 -59 17 -13 45
-48 62 -78 33 -59 52 -73 97 -73 20 0 44 -12 76 -40 25 -22 55 -40 65 -40 11
0 27 -12 37 -26 10 -14 46 -57 80 -95 34 -39 79 -101 98 -139 20 -37 61 -97
92 -132 77 -88 143 -183 143 -205 0 -10 14 -38 30 -63 16 -25 30 -57 30 -72 0
-15 7 -46 16 -69 14 -33 15 -56 9 -122 -5 -45 -8 -130 -7 -189 0 -91 4 -113
21 -142 12 -18 21 -51 21 -72 0 -22 7 -50 15 -64 8 -14 17 -31 21 -38 4 -8 -3
-39 -16 -69 l-23 -56 30 -56 31 -56 -9 -103 c-6 -66 -5 -119 1 -148 7 -30 7
-66 1 -107 -6 -34 -10 -78 -10 -97 0 -19 -3 -54 -6 -76 -4 -23 -1 -68 5 -100
17 -78 14 -284 -6 -467 -18 -161 -18 -169 32 -347 21 -76 23 -109 25 -300 1
-152 -2 -227 -11 -257 -10 -34 -10 -66 0 -168 13 -140 7 -229 -21 -292 -24
-52 -24 -50 3 -109 19 -43 22 -68 24 -214 1 -91 7 -201 14 -245 11 -80 25
-244 35 -405 2 -47 10 -138 16 -203 8 -83 8 -131 1 -160 -32 -130 -34 -152
-22 -222 6 -39 13 -122 16 -185 2 -63 9 -142 14 -175 18 -108 13 -188 -16
-260 -19 -47 -24 -75 -20 -99 8 -41 -21 -81 -73 -103 -19 -8 -49 -26 -66 -39
-17 -13 -63 -31 -101 -40 -38 -9 -107 -30 -153 -47 -50 -18 -99 -30 -122 -29
-21 2 -54 -4 -73 -12 -20 -8 -93 -29 -163 -46 -71 -18 -133 -36 -140 -42 -6
-5 -40 -14 -75 -20 -206 -33 -334 -62 -400 -92 -39 -17 -66 -23 -90 -20 -18 3
-53 -1 -78 -10 -34 -12 -87 -16 -217 -16 -140 0 -179 -3 -207 -17 -33 -15 -39
-15 -86 0 -39 13 -61 15 -93 7 -74 -16 -159 -49 -206 -80 -26 -16 -66 -38 -91
-49 -62 -27 -195 -54 -231 -46 -20 5 -39 1 -62 -14 -30 -19 -41 -19 -150 -11
-71 5 -130 5 -149 -1 -55 -15 -74 -11 -140 34 -35 24 -68 42 -73 40 -6 -1 -17
1 -25 7 -12 7 -10 12 12 29 25 20 25 22 12 61 -8 23 -23 53 -33 68 -10 15 -29
44 -42 65 -13 21 -39 46 -56 57 -25 15 -33 26 -33 49 0 16 -6 42 -14 58 -8 15
-23 48 -33 73 -10 25 -39 69 -65 98 -27 29 -48 59 -48 68 0 9 -22 59 -49 112
-44 86 -85 173 -127 267 -7 17 -22 70 -33 119 -11 50 -28 97 -39 110 -11 11
-36 68 -55 124 -20 57 -44 116 -54 130 -33 50 -83 153 -83 172 0 11 -9 43 -20
72 -17 44 -18 58 -8 90 8 29 8 44 0 64 -7 13 -12 44 -12 67 0 23 -9 62 -20 86
-11 24 -20 49 -20 57 0 7 -9 28 -20 47 -16 27 -21 58 -25 162 -5 106 -9 133
-24 150 -31 35 -53 181 -51 340 3 181 -5 349 -19 402 -6 23 -11 59 -11 80 0
21 -4 101 -9 178 -9 126 -8 143 8 170 15 25 16 42 10 110 -5 44 -10 148 -12
230 -5 154 -34 604 -42 640 -3 11 0 58 7 105 9 72 8 93 -6 141 -12 44 -14 68
-6 107 6 32 6 62 0 79 -8 24 -21 274 -20 388 1 22 8 65 17 95 18 58 21 145 8
221 -5 35 -3 52 8 70 24 37 40 186 26 247 -6 31 -7 58 -1 69 4 10 9 81 11 157
1 77 6 146 10 154 5 8 6 64 3 123 -4 84 -1 118 11 151 26 72 32 196 11 261
-15 48 -16 63 -5 99 7 24 16 57 21 73 5 17 8 118 8 225 0 120 4 206 11 223 6
16 11 69 11 118 0 50 5 100 12 112 6 12 12 67 13 122 1 55 7 143 13 195 14
124 21 202 28 325 6 122 7 111 -2 163 -6 36 -3 48 15 73 12 16 24 43 28 61 3
18 12 46 20 61 9 18 11 40 7 63 -4 22 0 55 11 91 14 43 15 63 7 92 -9 33 -8
70 4 128 2 12 15 34 28 50 31 37 40 93 27 173 -13 81 0 125 52 178 l37 38 0
98 0 98 -35 31 c-42 37 -43 57 -9 117 36 61 74 164 74 199 0 15 9 54 20 86 11
32 20 70 20 84 1 14 11 45 23 68 83 157 117 229 117 248 0 12 13 39 30 61 16
21 30 43 30 48 0 11 126 184 157 215 13 13 23 36 23 52 0 19 9 34 29 48 16 12
31 31 35 44 3 12 23 34 46 47 22 14 51 44 65 66 13 23 45 63 70 88 25 26 45
53 45 60 0 8 31 47 68 87 38 41 71 82 75 91 7 20 101 82 140 91 16 5 37 23 52
46 31 50 61 71 100 71 40 0 69 21 97 71 14 25 38 49 62 61 22 11 61 42 87 69
27 28 65 57 86 66 21 8 48 24 62 34 13 10 33 19 43 19 11 0 32 9 47 19 15 11
56 29 91 41 35 12 73 28 84 36 11 8 39 14 61 14 28 0 56 11 95 35 30 19 60 35
67 35 8 0 31 9 53 20 22 11 48 20 58 20 11 0 36 14 57 30 21 17 50 33 64 36
14 3 51 11 81 19 30 7 87 16 125 20 83 7 195 40 228 65 13 10 37 22 53 26 16
4 46 16 68 26 49 25 148 57 200 65 23 3 66 19 97 35 45 23 77 30 160 38 141
13 278 42 331 71 13 7 52 16 88 21 36 4 88 12 115 18 28 6 73 8 102 4 42 -5
57 -2 80 13 37 26 203 80 305 99 46 9 97 24 113 34 17 10 60 21 98 25 37 3 86
13 109 21 22 7 53 14 68 14 15 0 47 7 70 15 23 8 52 15 64 15 11 0 46 12 76
26 35 16 85 29 137 34 46 5 86 11 91 14 4 2 41 9 83 15 41 6 109 24 150 41 94
40 202 70 253 70 27 0 47 7 62 21 21 20 35 22 191 23 110 2 175 7 188 14 12 8
36 10 60 7 22 -3 96 -12 165 -20z m1080 -1079 c41 -1 84 -6 95 -13 11 -6 45
-18 76 -27 53 -16 60 -16 98 0 34 13 49 14 88 5 27 -7 80 -11 118 -10 143 3
209 -7 290 -46 155 -73 131 -69 365 -71 118 -2 249 -8 290 -15 81 -13 105 -14
250 -9 74 3 113 -1 178 -19 68 -19 103 -22 210 -20 140 3 294 -12 316 -30 8
-7 17 -34 21 -62 6 -39 3 -55 -11 -77 -15 -21 -19 -46 -19 -122 0 -68 -5 -103
-16 -125 -10 -18 -19 -67 -22 -125 -26 -420 -36 -470 -102 -507 -56 -32 -95
-27 -116 14 -26 52 -36 60 -85 67 -25 3 -59 17 -77 30 -18 13 -79 37 -137 54
-58 16 -127 42 -154 56 -40 21 -62 26 -123 26 -48 0 -85 6 -104 16 -21 10 -71
17 -157 20 -81 4 -142 11 -167 22 -24 9 -94 19 -180 24 -77 4 -174 12 -215 18
-41 6 -142 15 -223 20 -88 6 -159 16 -175 24 -39 20 -211 16 -244 -6 -21 -14
-53 -16 -216 -13 -105 2 -195 6 -200 8 -13 9 -292 -11 -350 -24 -45 -10 -68
-9 -147 6 -52 10 -99 14 -107 9 -7 -5 -65 -11 -128 -15 -76 -5 -147 -16 -210
-34 -143 -40 -289 -64 -423 -70 -55 -3 -74 -8 -92 -25 -26 -24 -145 -67 -212
-77 -46 -6 -78 10 -69 34 3 8 1 71 -5 141 -8 98 -8 135 2 164 10 31 10 40 -2
54 -13 16 -16 49 -21 229 -1 22 0 58 2 80 1 22 1 49 -1 60 -5 28 78 57 139 49
35 -4 51 -1 80 19 21 13 63 36 95 50 32 15 72 38 89 52 28 24 36 25 144 25 97
0 121 3 156 21 38 20 43 20 82 5 54 -21 77 -20 134 3 26 11 74 22 107 25 33 3
83 11 110 17 28 6 66 11 85 11 77 -2 217 -20 239 -32 13 -6 37 -9 55 -6 17 3
54 9 81 14 28 4 64 16 81 25 36 19 169 48 187 42 7 -3 39 8 72 24 38 19 67 28
80 23 11 -3 54 -6 95 -6z m2712 -575 c43 -19 113 -79 258 -221 122 -119 146
-140 183 -155 22 -9 63 -42 93 -73 46 -49 65 -78 104 -162 4 -8 24 -24 46 -35
28 -15 41 -29 49 -55 14 -50 82 -127 133 -151 56 -28 72 -45 72 -77 0 -15 6
-36 13 -47 29 -46 57 -136 67 -220 7 -62 17 -98 30 -115 37 -47 70 -119 70
-154 0 -19 13 -63 30 -98 17 -35 30 -80 30 -100 0 -21 6 -57 14 -80 30 -88 46
-167 46 -222 0 -54 -1 -57 -37 -79 -21 -13 -49 -28 -63 -32 -14 -4 -45 -18
-70 -31 -25 -13 -50 -24 -55 -24 -6 0 -27 -15 -47 -34 -20 -19 -58 -46 -84
-61 -85 -48 -287 -167 -329 -193 -22 -14 -72 -56 -112 -94 -39 -37 -78 -68
-85 -68 -20 0 -89 -39 -127 -72 -19 -17 -54 -39 -79 -49 -25 -11 -61 -33 -80
-50 -19 -17 -54 -39 -77 -49 -22 -10 -49 -29 -58 -44 -10 -14 -31 -33 -49 -42
-34 -18 -129 -115 -140 -145 -4 -10 -30 -30 -58 -44 -31 -16 -54 -35 -60 -51
-15 -39 -128 -81 -145 -54 -8 13 12 123 34 190 14 41 22 110 31 269 6 118 15
223 20 235 27 69 42 141 51 254 12 157 15 188 27 282 5 41 15 134 21 205 24
272 30 314 46 346 20 37 31 140 39 342 4 118 8 145 28 185 13 26 23 63 24 82
1 36 23 179 51 330 9 47 17 146 18 220 1 99 6 150 19 190 17 51 41 84 55 76 3
-2 27 -13 53 -25z m-2712 -610 c111 -7 130 -14 169 -55 l24 -26 -18 -59 c-10
-32 -15 -74 -13 -92 3 -20 -2 -50 -14 -77 -11 -24 -17 -50 -14 -58 3 -8 -1
-56 -10 -106 -8 -49 -13 -107 -9 -127 3 -20 1 -59 -5 -86 -13 -60 -21 -256
-20 -540 2 -889 -8 -1386 -31 -1554 -10 -72 -9 -94 6 -158 15 -62 16 -81 5
-112 -7 -21 -10 -63 -7 -97 13 -163 48 -453 59 -486 19 -65 16 -198 -7 -247
-20 -42 -20 -42 -64 -37 -24 3 -54 6 -67 6 -13 0 -41 15 -61 34 -21 18 -57 43
-80 55 -23 11 -45 26 -48 31 -4 6 -32 23 -62 37 -30 15 -57 33 -61 41 -3 8 6
36 21 62 l26 46 0 235 c-1 255 -4 272 -62 355 -29 42 -29 42 -32 218 -2 97 -7
191 -11 209 -4 17 -8 64 -10 102 -1 39 -7 126 -14 195 -6 69 -12 143 -14 165
-2 22 -6 56 -9 75 -16 94 -35 523 -42 935 -1 101 -13 228 -26 280 -9 39 -16
125 -23 290 -2 45 -8 90 -14 100 -12 24 -21 380 -9 391 5 5 27 9 50 10 23 1
69 12 102 24 59 23 227 43 270 33 11 -3 67 -8 125 -12z m705 -21 c44 -5 107
-18 140 -30 53 -19 66 -20 112 -10 42 9 57 8 80 -4 55 -28 65 -84 33 -176 -12
-33 -20 -83 -20 -125 -1 -39 -8 -88 -17 -110 -15 -37 -28 -148 -37 -315 -2
-36 -8 -105 -15 -155 -7 -63 -8 -101 0 -128 7 -28 7 -53 0 -86 -6 -25 -11 -57
-11 -71 0 -14 -4 -104 -9 -200 -12 -219 -5 -733 10 -778 7 -21 9 -62 5 -105
-6 -71 4 -198 24 -307 6 -30 12 -90 15 -132 2 -42 8 -94 14 -115 6 -21 11
-104 11 -184 0 -80 5 -172 11 -204 10 -52 9 -61 -10 -85 -11 -15 -27 -45 -36
-66 -22 -54 -41 -72 -116 -110 -43 -21 -103 -67 -170 -129 -106 -99 -207 -175
-231 -175 -21 0 -38 21 -38 49 0 13 -11 43 -24 65 -31 54 -46 139 -55 316 -5
95 -13 155 -23 175 -12 24 -14 64 -12 191 2 140 6 171 28 246 25 81 26 89 12
128 -12 35 -12 58 -3 129 9 75 8 93 -8 143 -12 38 -15 70 -11 95 7 38 7 74 5
443 -1 159 -5 212 -16 234 -13 24 -13 41 -4 100 7 41 11 169 10 301 -2 205 0
234 16 265 15 30 19 65 22 230 2 107 7 209 13 225 5 17 11 108 13 203 l4 173
30 42 c41 57 67 69 128 61 28 -4 86 -10 130 -14z m-1554 -49 l39 -39 2 -113
c1 -63 1 -135 -1 -161 -1 -26 5 -78 13 -115 18 -77 34 -279 40 -488 2 -87 9
-162 19 -198 13 -46 14 -69 6 -110 -6 -29 -12 -155 -13 -282 -3 -198 -1 -240
15 -305 10 -41 19 -97 19 -125 0 -60 26 -212 45 -268 11 -31 11 -58 3 -126
-14 -120 -13 -218 5 -421 18 -198 40 -351 58 -395 7 -18 13 -95 14 -193 3
-146 1 -163 -15 -172 -24 -13 -150 21 -150 40 0 10 -131 97 -166 110 -14 6
-51 28 -82 50 -30 22 -59 40 -64 40 -5 0 -32 15 -61 33 -68 43 -280 117 -335
117 -37 0 -79 56 -103 134 -11 39 -25 84 -30 100 -5 16 -9 55 -9 87 0 32 -5
70 -11 86 -5 15 -13 82 -16 148 -3 70 -11 131 -19 147 -8 15 -14 50 -14 78 0
28 -5 60 -10 70 -6 11 -15 57 -21 102 -10 82 -13 95 -46 193 -19 60 -31 135
-41 270 -4 55 -13 110 -19 122 -7 11 -17 82 -21 156 -8 112 -13 143 -36 192
-17 38 -26 75 -26 108 0 33 -7 61 -21 84 -17 27 -23 59 -30 154 -4 65 -12 127
-17 136 -5 10 -14 45 -21 78 -7 33 -16 76 -21 95 -5 19 -8 44 -8 55 0 11 -6
38 -12 60 -16 54 -20 318 -6 327 6 4 36 8 66 8 30 0 73 5 95 10 59 15 186 31
310 38 93 6 119 11 167 36 36 17 84 31 125 36 38 4 81 13 96 19 16 6 63 11
105 12 42 0 86 4 97 9 41 17 67 10 106 -29z m2309 -22 c30 -12 84 -25 120 -30
36 -4 81 -11 100 -14 51 -10 293 -86 307 -97 11 -9 108 -27 178 -32 17 -2 36
-4 43 -4 16 -2 9 -83 -20 -227 -11 -55 -26 -156 -33 -225 -8 -69 -21 -163 -30
-210 -8 -47 -20 -119 -24 -160 -5 -41 -16 -124 -24 -185 -9 -60 -15 -126 -15
-145 1 -50 -38 -343 -56 -420 -9 -36 -15 -92 -16 -124 0 -33 -4 -85 -10 -115
-24 -141 -28 -183 -21 -208 5 -16 2 -64 -6 -113 -7 -47 -18 -120 -23 -163 -6
-43 -17 -92 -26 -109 -8 -16 -13 -36 -10 -44 14 -36 -7 -76 -59 -114 -29 -21
-55 -49 -58 -63 -7 -26 -79 -82 -120 -92 -14 -4 -60 -36 -103 -71 -92 -77
-201 -132 -219 -112 -15 16 -37 166 -34 233 1 30 -5 70 -16 98 -11 30 -16 62
-13 90 5 43 -2 130 -22 262 -5 39 -14 174 -19 300 -6 127 -15 259 -22 294 -11
59 -10 66 12 109 20 42 23 60 21 168 0 80 -7 142 -17 178 -18 62 -17 97 8 311
10 82 15 179 12 264 -3 113 -1 144 16 200 11 36 25 83 31 103 6 21 8 66 5 100
-3 35 -1 86 5 113 5 28 9 81 9 118 -1 69 12 109 44 141 22 21 39 20 105 -5z
m2830 -2911 c6 -24 15 -56 20 -73 5 -16 16 -106 25 -199 14 -154 31 -249 71
-392 8 -28 14 -77 14 -110 0 -32 5 -77 11 -99 21 -83 26 -152 17 -229 -6 -54
-5 -90 2 -110 6 -17 15 -96 20 -176 10 -150 22 -228 46 -293 8 -20 14 -51 14
-68 0 -17 5 -40 12 -52 6 -12 13 -35 14 -52 3 -35 13 -82 44 -215 18 -80 22
-130 25 -310 2 -202 10 -497 15 -530 6 -45 -13 -549 -24 -630 -12 -95 -13
-321 -2 -615 5 -146 5 -152 -23 -235 -49 -146 -54 -187 -50 -440 2 -95 -11
-163 -41 -220 -17 -34 -24 -64 -25 -120 -2 -75 -22 -233 -49 -385 -8 -44 -12
-95 -9 -113 4 -21 0 -39 -9 -50 -8 -9 -27 -42 -42 -73 -22 -44 -27 -65 -22
-95 8 -52 -17 -291 -32 -306 -7 -7 -12 -27 -12 -46 0 -18 -5 -43 -12 -55 -6
-12 -11 -36 -10 -53 2 -17 -5 -58 -14 -90 -9 -33 -22 -88 -29 -124 -7 -36 -20
-85 -29 -110 -10 -25 -24 -81 -32 -125 -15 -81 -46 -181 -67 -219 -6 -12 -12
-55 -12 -96 -2 -75 -16 -148 -40 -205 -30 -71 -44 -112 -50 -141 -13 -70 -77
-99 -185 -84 -141 19 -220 52 -220 93 0 12 -10 38 -21 57 -20 31 -21 49 -21
210 0 96 5 219 12 273 9 71 11 163 5 325 -4 125 -9 290 -10 367 -1 77 -7 169
-14 205 -9 50 -9 83 1 145 6 44 11 91 10 105 0 14 -4 82 -8 153 -5 94 -3 143
7 190 20 89 16 359 -5 392 -14 22 -14 32 3 117 20 105 16 179 -14 240 -17 35
-17 40 -2 75 8 21 18 60 20 87 5 47 3 50 -39 92 -48 47 -52 62 -26 101 12 19
17 49 18 103 1 41 5 122 9 180 5 58 8 127 7 153 -1 27 4 60 12 75 24 47 30
119 12 146 -12 19 -15 45 -12 123 3 91 2 100 -20 126 -17 21 -24 41 -24 72 0
25 -8 60 -17 79 -14 29 -14 40 -4 62 6 15 15 78 18 140 l6 113 -46 20 c-55 24
-59 41 -21 96 24 36 25 41 13 77 -10 31 -10 46 -1 72 20 55 15 184 -10 236
-38 81 -51 217 -29 298 9 35 9 48 -4 73 -11 19 -14 41 -9 64 4 25 1 43 -14 67
-24 40 -34 143 -21 213 5 28 14 109 19 181 8 101 16 144 34 185 12 30 26 75
29 101 4 26 18 65 32 86 17 26 25 50 23 72 -2 26 2 36 18 45 38 19 54 37 54
60 0 12 9 30 21 41 45 41 81 96 83 127 1 25 10 37 41 58 58 39 66 81 33 174
-9 26 -7 38 11 72 11 23 26 45 31 48 6 4 15 17 20 30 11 30 60 40 67 14 3 -11
11 -19 19 -19 10 0 12 12 7 48 -5 46 -4 50 26 71 17 12 31 29 31 36 0 18 31
35 65 35 38 0 89 53 82 86 -4 21 2 29 38 49 40 24 52 41 89 128 21 50 42 48
56 -5z m-759 -287 c42 -43 40 -88 -6 -130 -19 -17 -35 -38 -35 -45 0 -12 -24
-45 -107 -148 -18 -22 -33 -51 -33 -64 0 -22 -18 -71 -43 -119 -67 -128 -97
-193 -97 -208 0 -9 -11 -45 -25 -78 -13 -33 -29 -86 -35 -116 -5 -30 -19 -70
-30 -88 -11 -18 -20 -49 -20 -69 0 -20 -7 -51 -16 -68 -13 -25 -15 -47 -9
-107 8 -92 8 -116 0 -206 -10 -111 -10 -134 4 -250 8 -60 15 -157 16 -215 1
-58 7 -117 13 -133 17 -41 24 -156 26 -437 2 -191 7 -286 21 -378 l19 -123
-22 -45 c-25 -50 -29 -126 -10 -171 8 -19 13 -111 13 -298 1 -148 5 -303 10
-344 7 -65 6 -76 -9 -87 -13 -9 -25 -10 -43 -3 -13 5 -47 9 -75 9 -41 0 -64 8
-120 40 -79 45 -98 48 -142 20 -19 -11 -52 -20 -81 -21 -66 -1 -202 16 -268
34 -83 24 -155 30 -187 17 -24 -10 -42 -8 -120 15 -78 23 -98 25 -133 17 -41
-10 -293 -8 -327 3 -10 3 -36 -2 -59 -11 -32 -13 -47 -14 -72 -5 -47 16 -84
13 -123 -10 l-35 -20 -70 22 -71 23 -41 -21 c-32 -16 -48 -19 -66 -12 -13 5
-35 9 -48 9 -14 0 -40 8 -59 17 -31 14 -42 15 -88 4 -44 -10 -59 -10 -88 1
-46 18 -285 17 -491 -1 -140 -13 -161 -13 -211 1 -50 14 -68 14 -171 2 -114
-14 -117 -14 -212 11 -72 18 -124 25 -208 26 -62 0 -119 -2 -129 -6 -9 -3 -34
3 -57 14 -46 24 -73 26 -135 9 -39 -10 -48 -10 -64 5 -14 13 -36 17 -98 15
-43 -1 -98 2 -122 7 -29 5 -62 3 -98 -5 -48 -12 -64 -11 -130 4 -41 10 -85 15
-97 12 -12 -3 -63 -8 -113 -11 -69 -5 -102 -2 -138 10 -31 11 -93 17 -184 20
-76 2 -157 8 -180 14 -36 10 -47 9 -79 -8 -28 -14 -51 -17 -89 -14 -29 3 -75
-1 -110 -10 -32 -8 -98 -15 -146 -16 -99 0 -158 -13 -208 -45 -19 -13 -52 -29
-73 -35 -21 -7 -60 -32 -86 -56 -37 -32 -59 -43 -95 -48 -25 -4 -63 -15 -84
-25 -20 -11 -56 -22 -80 -26 -24 -4 -66 -18 -92 -31 -88 -45 -155 -27 -189 50
-15 35 -18 52 -10 77 13 47 11 105 -5 136 -19 38 -26 98 -27 242 -1 89 3 135
13 160 19 45 23 256 7 319 -9 36 -9 56 2 91 12 41 21 192 22 365 0 44 -5 81
-15 100 -23 45 -31 112 -16 138 16 28 37 105 38 136 0 13 -15 52 -34 87 -34
62 -35 63 -38 208 l-3 145 58 59 c46 47 61 70 72 113 24 88 20 106 -29 153
-52 48 -66 73 -66 115 0 34 -7 42 -99 116 -34 28 -64 60 -67 72 -3 12 -23 37
-45 56 -26 24 -39 44 -39 61 0 14 -14 41 -31 61 -17 19 -39 56 -49 82 -12 33
-27 52 -51 65 -42 22 -56 37 -77 79 -9 18 -28 39 -41 46 -14 6 -31 23 -38 37
-7 13 -22 27 -32 31 -11 3 -36 26 -56 51 -38 47 -111 98 -186 131 -57 26 -99
69 -99 102 0 47 -26 103 -54 118 -22 12 -25 17 -16 33 22 40 84 15 85 -34 0
-18 6 -21 46 -21 38 0 50 -5 70 -29 19 -21 36 -30 69 -33 58 -6 98 -28 102
-55 2 -16 15 -27 45 -38 23 -9 55 -28 71 -43 16 -15 44 -36 63 -46 19 -10 68
-37 109 -61 74 -43 76 -44 164 -43 83 1 90 0 115 -25 29 -29 165 -102 190
-102 9 0 54 -22 101 -50 47 -27 89 -50 93 -50 5 0 62 -25 127 -55 79 -36 140
-58 183 -64 36 -5 77 -17 91 -26 14 -9 45 -21 68 -27 23 -5 64 -25 91 -44 27
-20 70 -45 96 -56 25 -10 60 -32 76 -47 17 -15 49 -33 71 -39 23 -7 49 -23 57
-35 9 -14 41 -33 79 -47 34 -12 74 -30 88 -40 43 -30 145 -69 201 -76 33 -4
63 -15 77 -28 15 -13 65 -30 139 -48 95 -22 122 -32 147 -57 17 -16 58 -42 91
-57 33 -15 74 -39 90 -55 17 -15 53 -36 81 -47 29 -10 67 -31 85 -45 19 -14
54 -33 79 -43 25 -10 62 -28 82 -41 21 -13 42 -23 46 -23 20 0 62 -43 62 -62
0 -11 -15 -35 -33 -52 -36 -34 -135 -86 -163 -86 -9 0 -38 -13 -63 -29 -25
-16 -58 -31 -73 -35 -21 -5 -35 -20 -56 -62 -20 -40 -39 -61 -67 -77 -76 -42
-112 -171 -62 -221 13 -13 43 -27 66 -31 26 -4 52 -18 70 -36 17 -16 45 -32
63 -35 18 -4 55 -17 82 -30 28 -13 56 -24 63 -24 7 0 21 -12 30 -27 10 -16 42
-51 71 -80 28 -28 52 -55 52 -60 0 -5 15 -17 33 -27 17 -10 48 -36 68 -57 l36
-38 57 21 c56 21 73 36 119 106 17 26 37 39 92 58 39 13 98 29 132 34 35 5 79
19 100 30 21 11 46 17 59 14 31 -8 61 11 80 51 15 31 32 41 66 36 11 -1 138
48 161 64 12 8 52 23 89 35 37 11 70 25 73 30 3 6 17 10 30 10 17 0 27 -9 38
-39 19 -47 30 -51 132 -58 110 -7 222 -38 266 -73 20 -16 51 -36 70 -44 19 -9
48 -26 65 -39 47 -33 95 -60 132 -74 19 -7 56 -33 84 -58 28 -25 59 -45 70
-45 24 0 181 -144 221 -204 28 -41 60 -49 99 -27 18 10 50 22 70 25 29 5 42
14 54 39 9 18 31 50 48 71 31 39 52 72 91 136 38 65 94 118 130 124 62 12 135
97 135 156 0 23 -152 180 -198 204 -15 8 -40 28 -55 45 -16 17 -33 31 -39 31
-5 0 -44 26 -86 59 -42 32 -99 71 -127 86 -27 15 -67 40 -89 54 -21 14 -66 37
-100 51 -48 20 -65 34 -83 65 -30 53 -29 79 5 104 15 11 38 29 52 41 14 11 49
38 77 60 34 26 62 58 78 91 14 27 33 53 41 56 8 3 22 19 30 35 9 17 42 59 75
94 32 35 59 67 59 71 0 5 14 17 30 28 49 32 100 104 100 140 0 43 19 59 56 45
40 -15 51 -7 58 43 5 32 14 50 31 61 14 9 33 33 44 54 10 20 26 52 36 70 22
43 110 112 142 112 34 0 91 28 104 51 5 10 35 35 67 55 31 20 77 53 101 73 25
20 71 52 104 72 32 20 93 69 135 109 61 56 96 80 167 112 50 22 147 78 216
124 103 69 137 86 182 94 67 11 122 38 160 79 36 38 51 39 88 2z m-7946 -117
c14 -9 25 -23 25 -30 0 -8 5 -14 11 -14 6 0 3 -7 -5 -16 -23 -23 -53 -9 -76
37 l-20 39 20 0 c11 0 32 -7 45 -16z m3978 -411 c4 -2 7 -11 7 -18 0 -24 -47
-29 -77 -10 -25 17 -26 18 -8 31 16 12 53 10 78 -3z m-1428 -3477 c39 0 158 3
265 6 135 4 220 2 275 -7 44 -7 133 -18 198 -26 106 -11 123 -11 165 4 53 19
232 22 342 6 36 -5 125 -16 198 -24 73 -8 137 -17 142 -20 5 -3 63 -8 128 -10
65 -2 131 -9 145 -14 47 -18 1010 -35 1126 -20 38 5 96 4 140 -2 119 -15 1071
-14 1114 2 28 10 39 10 50 1 30 -25 170 -47 307 -48 74 0 158 -6 185 -12 28
-6 76 -14 107 -17 50 -6 59 -4 75 14 20 24 51 27 78 7 20 -14 23 -37 44 -336
6 -74 13 -149 16 -166 3 -17 1 -54 -5 -81 -8 -35 -8 -66 0 -109 6 -32 15 -84
19 -114 5 -30 13 -73 19 -95 6 -22 13 -90 17 -151 7 -106 6 -113 -14 -133 -12
-12 -35 -24 -52 -28 -17 -3 -38 -18 -51 -35 -11 -17 -35 -36 -52 -43 -17 -7
-51 -28 -76 -46 -62 -46 -138 -92 -180 -109 -19 -7 -50 -25 -69 -39 -52 -40
-180 -118 -246 -150 -43 -20 -77 -47 -118 -95 -64 -73 -107 -101 -142 -92 -30
8 -36 25 -41 128 -3 75 -1 94 17 128 28 53 21 102 -21 145 -26 26 -30 39 -30
83 0 29 7 66 15 82 9 16 22 65 30 109 15 78 15 81 -7 128 -21 43 -27 48 -58
51 -36 3 -158 -46 -178 -71 -10 -13 -17 -64 -31 -237 -9 -100 -8 -107 14 -140
41 -63 48 -100 35 -204 l-11 -94 30 -60 c16 -32 41 -66 55 -76 14 -9 26 -25
26 -35 0 -10 16 -31 35 -45 21 -17 35 -36 35 -49 0 -32 -88 -113 -138 -126
-62 -17 -107 -78 -138 -188 -1 -7 -21 -17 -43 -24 -35 -10 -46 -9 -90 10 -78
33 -118 26 -146 -29 -14 -27 -14 -36 0 -89 20 -79 19 -93 -10 -150 -31 -63
-77 -101 -120 -101 -47 0 -64 8 -80 40 -9 18 -36 39 -70 55 -50 25 -58 26 -86
14 -20 -8 -37 -25 -45 -45 -24 -58 -19 -88 35 -209 25 -54 35 -129 21 -154
-21 -40 -48 -45 -88 -18 -36 23 -65 33 -130 44 -28 5 -38 0 -78 -41 -43 -42
-45 -48 -40 -83 39 -228 32 -333 -20 -333 -32 0 -74 30 -74 54 0 36 -46 131
-74 154 -33 25 -131 39 -152 21 -47 -39 -68 -139 -39 -189 8 -15 14 -53 15
-92 0 -64 -2 -70 -36 -108 -28 -31 -44 -40 -69 -40 -38 0 -153 -49 -174 -73
-7 -10 -22 -17 -32 -17 -28 0 -34 42 -13 99 16 46 16 52 1 93 -9 24 -17 55
-17 69 0 16 -17 44 -48 77 -39 42 -54 52 -80 52 -85 0 -110 -61 -113 -269 l-2
-143 -66 -43 c-100 -66 -119 -64 -160 12 -30 55 -31 61 -27 158 2 66 9 110 20
130 23 43 20 72 -11 102 -40 37 -84 53 -129 46 -66 -10 -71 -20 -78 -151 -3
-64 -11 -138 -17 -164 -8 -38 -7 -52 5 -77 26 -49 21 -103 -12 -134 -35 -34
-46 -34 -103 2 -37 24 -48 37 -58 73 -6 23 -10 56 -9 72 3 25 -4 35 -44 65
-37 28 -48 42 -48 63 0 18 -8 33 -23 43 -67 44 -131 19 -133 -52 -1 -21 -4
-49 -8 -63 -5 -19 3 -40 39 -94 72 -110 58 -155 -30 -101 -32 20 -53 25 -110
25 -77 0 -86 4 -104 39 -11 20 -10 26 13 50 39 40 51 94 30 126 -14 22 -15 33
-5 78 48 211 48 220 17 267 -14 22 -44 49 -66 60 -22 11 -40 25 -40 30 0 19
-41 10 -75 -15 -60 -47 -63 -69 -37 -355 5 -52 7 -100 4 -107 -9 -27 -42 -24
-79 6 -21 16 -58 34 -82 40 -24 5 -48 14 -54 20 -6 6 -29 11 -50 11 -53 0
-194 78 -255 140 -66 67 -135 104 -185 97 -33 -4 -48 0 -92 29 -30 19 -60 46
-67 61 -13 26 -86 80 -184 136 -147 83 -214 146 -242 226 -14 41 -38 60 -74
61 -16 0 -35 8 -43 18 -47 54 -75 91 -75 99 0 11 -59 59 -112 91 -20 12 -39
29 -42 38 -3 8 -23 22 -43 31 -21 8 -62 38 -92 65 -55 51 -92 72 -144 83 -15
3 -43 20 -62 38 l-35 32 -2 120 c-3 169 14 323 39 362 14 20 14 32 5 74 -7 27
-9 68 -6 92 4 29 -2 76 -20 149 -14 58 -23 114 -20 123 4 9 2 40 -4 68 -30
144 -44 247 -40 278 3 19 2 95 -3 169 -5 74 -12 212 -14 305 -9 305 -12 350
-18 375 -5 17 -1 33 12 50 19 24 27 25 148 32 70 3 147 2 171 -3 54 -12 120 3
172 37 33 22 56 28 137 33 82 6 110 13 168 41 39 18 90 50 115 70 59 49 80 60
159 77 98 22 199 32 261 25 30 -3 87 -6 125 -6z m641 -3963 c20 -27 17 -33
-20 -33 -37 0 -51 12 -42 35 8 21 46 19 62 -2z m69 -73 c3 -5 -3 -10 -14 -10
-12 0 -21 5 -21 10 0 6 6 10 14 10 8 0 18 -4 21 -10z"/>
<path d="M9529 30163 l-41 -37 7 -60 c11 -105 22 -128 74 -167 26 -20 55 -52
64 -71 9 -20 34 -53 54 -75 84 -88 134 -154 140 -185 3 -18 15 -44 25 -57 22
-29 58 -108 58 -127 0 -18 57 -120 87 -157 13 -16 23 -36 23 -46 0 -9 14 -38
30 -64 17 -26 30 -56 30 -67 0 -11 15 -48 34 -82 19 -35 46 -103 60 -152 14
-49 33 -98 43 -108 12 -13 17 -40 19 -96 7 -187 110 -599 165 -658 18 -19 23
-38 26 -96 3 -70 19 -143 48 -218 8 -19 19 -53 25 -75 7 -22 21 -62 32 -90 33
-86 56 -167 69 -248 9 -58 21 -94 49 -140 49 -82 73 -96 137 -79 26 7 57 22
68 32 21 21 22 14 -22 155 -8 28 -21 73 -28 100 -12 51 -40 119 -77 188 -14
26 -21 61 -22 110 -2 40 -10 90 -20 112 -9 22 -21 79 -25 127 -5 57 -15 98
-28 120 -11 19 -23 61 -27 94 -4 32 -23 99 -43 148 -26 66 -34 98 -29 124 3
24 -2 52 -18 91 -13 31 -27 81 -30 111 -4 30 -15 68 -25 85 -18 30 -34 112
-47 230 -9 91 -22 134 -65 207 -21 36 -39 76 -39 88 0 13 -20 51 -45 86 -25
34 -45 71 -45 81 0 21 -51 132 -79 172 -10 14 -21 38 -25 54 -3 15 -22 44 -41
65 -18 21 -37 51 -41 67 -4 17 -15 41 -26 54 -24 31 -58 108 -58 131 0 9 -17
37 -39 61 -21 24 -46 60 -56 79 -31 60 -115 179 -142 200 -19 15 -41 20 -84
20 -54 0 -62 -3 -100 -37z"/>
<path d="M5284 23799 c-39 -11 -84 -55 -84 -83 0 -11 6 -41 14 -66 28 -87 36
-126 46 -222 13 -121 13 -199 1 -231 -8 -20 -5 -31 14 -56 12 -18 26 -53 30
-79 4 -26 15 -60 25 -77 10 -16 28 -66 40 -110 11 -44 26 -93 31 -110 6 -16
16 -50 23 -75 8 -25 26 -79 41 -119 18 -52 25 -85 20 -107 -5 -28 -1 -35 25
-54 22 -16 30 -29 30 -51 0 -16 9 -47 20 -69 11 -22 20 -48 20 -59 0 -11 21
-39 46 -63 25 -24 67 -64 95 -89 27 -26 49 -51 49 -57 0 -9 75 -110 90 -122
41 -30 116 -96 160 -140 54 -54 112 -87 196 -109 23 -6 58 -22 78 -36 21 -15
51 -25 71 -25 47 0 82 -15 142 -62 33 -25 91 -54 155 -78 117 -42 223 -93 254
-121 11 -11 46 -24 76 -29 38 -6 77 -22 127 -55 39 -26 91 -55 115 -65 23 -11
53 -28 67 -38 43 -34 103 -59 156 -67 46 -6 59 -13 100 -57 27 -28 65 -61 86
-75 46 -29 67 -74 67 -144 0 -29 5 -67 12 -86 10 -28 9 -38 -12 -80 -13 -26
-40 -66 -61 -88 -21 -23 -50 -70 -65 -105 -15 -36 -45 -84 -66 -107 -21 -24
-38 -49 -38 -57 0 -8 -20 -44 -45 -80 -24 -36 -51 -81 -59 -100 -8 -20 -28
-42 -45 -50 -17 -9 -36 -27 -43 -40 -7 -14 -44 -52 -81 -85 -60 -52 -81 -64
-164 -90 -52 -17 -104 -31 -116 -31 -32 -1 -307 -73 -417 -110 -36 -12 -89
-25 -119 -30 -29 -5 -74 -23 -100 -39 -25 -17 -65 -33 -89 -37 -23 -4 -60 -19
-81 -34 -21 -16 -67 -36 -102 -46 -67 -18 -129 -49 -129 -65 0 -5 -25 -25 -55
-44 -30 -20 -55 -41 -55 -47 0 -6 9 -30 19 -52 11 -23 26 -58 35 -78 10 -26
26 -43 50 -54 32 -16 38 -16 78 -1 24 10 55 17 68 17 14 0 43 12 65 25 22 14
51 25 65 25 14 0 43 9 65 20 60 31 185 61 329 79 38 5 72 14 75 20 4 6 36 22
71 36 35 14 74 34 86 46 33 31 193 77 274 79 63 2 100 16 231 88 106 58 121
69 180 143 108 135 139 173 168 204 15 17 36 44 47 60 19 32 77 105 131 168
18 20 33 44 33 53 0 8 11 32 25 52 14 20 25 43 25 52 0 8 17 40 38 71 21 30
44 75 51 100 7 24 23 67 34 94 17 40 20 71 20 157 -1 106 -2 109 -44 194 -29
57 -53 93 -72 104 -16 10 -56 49 -90 86 -72 82 -95 101 -139 116 -34 12 -123
66 -171 105 -16 13 -36 23 -45 23 -39 0 -138 50 -167 85 -25 29 -40 37 -85 44
-147 25 -203 43 -230 76 -22 27 -120 72 -185 85 -79 16 -122 35 -153 65 -17
17 -36 25 -59 25 -59 0 -249 108 -356 201 -23 20 -62 47 -86 59 -74 37 -147
89 -161 114 -7 13 -32 39 -57 57 -46 35 -113 130 -113 161 0 10 -13 30 -30 45
-17 15 -30 36 -30 49 0 13 -11 47 -25 76 -13 29 -29 71 -35 94 -5 22 -25 60
-44 85 -35 46 -50 84 -62 159 -3 25 -19 70 -34 100 -15 30 -31 77 -35 105 -4
27 -14 62 -22 78 -10 20 -12 36 -6 54 6 17 4 51 -4 92 -48 239 -52 262 -52
312 -1 65 -27 131 -64 166 -38 37 -62 44 -103 32z"/>
<path d="M12565 21824 c-44 -23 -46 -25 -57 -100 -20 -137 -26 -170 -38 -200
-23 -54 0 -91 77 -125 36 -16 71 -26 81 -22 46 17 100 67 125 117 26 51 27 56
17 132 -14 104 -24 127 -78 174 -49 44 -79 49 -127 24z"/>
<path d="M12158 21815 c-35 -20 -75 -104 -87 -185 -5 -36 -16 -94 -25 -129
-19 -76 -16 -90 30 -130 40 -36 71 -39 130 -12 39 18 41 21 84 142 35 100 44
138 44 196 1 61 -2 75 -19 88 -47 37 -119 50 -157 30z"/>
<path d="M13111 21719 c-13 -5 -44 -7 -70 -3 -38 5 -51 2 -74 -16 -49 -39 -60
-81 -53 -205 6 -106 7 -111 36 -137 37 -34 57 -35 100 -3 19 14 41 25 49 25
50 1 85 91 83 213 -1 43 -4 87 -7 98 -9 27 -35 38 -64 28z"/>
<path d="M13793 21698 c-40 -44 -43 -62 -43 -248 l0 -181 26 -26 c24 -24 30
-25 85 -19 33 3 69 10 79 16 34 18 52 77 44 147 -4 46 -2 75 11 113 21 64 15
107 -21 157 -41 56 -53 63 -109 63 -41 0 -56 -5 -72 -22z"/>
<path d="M11628 21693 c-9 -10 -24 -38 -35 -63 -17 -40 -19 -67 -17 -245 1
-117 6 -211 13 -227 13 -35 66 -68 107 -68 39 0 66 29 94 100 35 87 38 112 29
242 -5 68 -9 136 -9 152 0 21 -12 41 -48 77 -40 40 -56 49 -84 49 -21 0 -41
-7 -50 -17z"/>
<path d="M14360 21653 c-14 -9 -32 -26 -40 -37 -7 -12 -33 -39 -56 -61 -60
-57 -67 -75 -58 -153 8 -78 35 -138 69 -154 20 -9 32 -6 77 22 75 47 93 65
114 113 10 23 25 53 35 67 24 36 33 103 19 144 -8 26 -22 40 -54 55 -51 25
-74 26 -106 4z"/>
<path d="M13402 21553 c-7 -3 -29 -30 -49 -61 -28 -44 -37 -70 -40 -112 -4
-53 -3 -56 41 -104 46 -48 46 -48 93 -41 90 13 120 40 143 127 16 60 10 83
-41 146 -39 50 -43 52 -87 51 -26 0 -53 -3 -60 -6z"/>
<path d="M14641 21531 c-13 -13 -20 -29 -16 -40 6 -20 -34 -151 -65 -211 -27
-53 -25 -65 13 -94 61 -46 79 -44 141 14 36 34 61 50 71 46 24 -9 18 -65 -15
-123 -24 -42 -30 -65 -30 -111 0 -65 15 -93 59 -111 24 -10 34 -10 57 3 33 17
84 63 84 75 0 4 21 30 48 58 26 27 56 68 66 92 19 42 19 42 -2 87 -12 24 -22
58 -22 74 0 23 -6 33 -24 42 -22 9 -32 6 -76 -22 -43 -28 -56 -32 -78 -24 -34
12 -41 61 -17 115 21 45 14 98 -16 125 -15 13 -40 20 -89 22 -59 4 -71 1 -89
-17z"/>
<path d="M11320 21532 c-14 -2 -31 -9 -39 -15 -22 -18 -81 -154 -81 -186 0
-16 -7 -48 -15 -71 -36 -102 18 -210 105 -210 26 0 47 7 64 23 25 22 106 206
106 240 0 10 10 35 22 56 30 53 20 82 -43 121 -64 39 -87 47 -119 42z"/>
<path d="M10899 21428 c-27 -21 -42 -87 -41 -177 1 -59 -4 -101 -18 -142 -11
-32 -20 -81 -20 -109 0 -45 4 -55 32 -81 36 -33 80 -44 140 -36 60 8 73 26 75
105 2 37 8 103 14 147 14 96 14 208 -1 235 -24 44 -149 84 -181 58z"/>
<path d="M12790 21168 c-30 -3 -83 -6 -117 -7 -34 -1 -72 -5 -85 -10 -13 -5
-36 -12 -51 -16 -18 -3 -31 -15 -38 -31 -8 -22 -14 -26 -38 -21 -96 19 -126
18 -216 -10 -82 -26 -92 -32 -118 -71 -16 -24 -41 -48 -54 -53 -14 -5 -37 -18
-52 -28 -14 -10 -42 -23 -61 -30 -19 -6 -49 -26 -67 -43 -28 -27 -36 -30 -71
-24 -37 5 -42 3 -75 -33 -19 -21 -54 -52 -78 -69 -24 -16 -57 -44 -74 -62 -16
-18 -54 -50 -82 -71 -39 -29 -53 -46 -53 -64 0 -13 -6 -39 -14 -57 -41 -99
-46 -190 -12 -256 28 -56 49 -76 100 -97 52 -22 87 -9 163 63 56 52 63 64 87
141 14 46 36 94 48 106 13 12 43 47 68 78 25 31 59 62 75 69 17 7 45 23 64 36
25 16 43 21 63 17 22 -5 34 0 64 29 32 31 95 60 121 55 4 -1 33 -1 64 0 46 1
63 6 94 31 21 17 49 30 63 30 14 0 50 14 80 31 40 22 61 29 82 24 16 -4 43 0
66 10 33 14 39 14 54 0 20 -18 110 -21 127 -4 17 17 142 12 169 -6 13 -8 39
-15 57 -15 19 0 46 -9 60 -20 14 -11 39 -20 56 -20 17 0 45 -9 63 -20 18 -11
41 -20 51 -20 10 0 40 -11 67 -25 33 -17 66 -25 100 -25 37 0 64 -7 94 -25 24
-14 50 -23 58 -20 30 12 144 -15 214 -50 67 -33 76 -35 112 -25 45 11 63 7
108 -27 21 -16 44 -23 73 -23 38 0 50 -6 108 -60 36 -33 90 -76 120 -96 50
-33 57 -35 106 -29 43 6 59 15 95 50 38 38 42 47 42 91 0 58 -36 141 -74 171
-26 21 -159 77 -208 87 -14 3 -41 24 -58 46 -28 35 -37 40 -73 40 -22 0 -48 6
-56 14 -9 7 -47 21 -85 31 -37 10 -87 31 -110 47 -22 15 -51 28 -62 28 -12 0
-38 7 -59 15 -21 9 -61 15 -93 14 -32 -1 -75 3 -97 9 -126 34 -155 38 -210 27
-26 -6 -34 -2 -53 24 -19 26 -29 31 -66 31 -31 0 -55 8 -87 30 -24 16 -51 30
-59 30 -8 1 -33 8 -55 16 -74 27 -294 52 -375 42z"/>
<path d="M10501 20922 c-17 -16 -33 -42 -36 -58 -3 -16 -10 -48 -15 -72 -13
-57 -13 -136 2 -184 14 -46 78 -105 126 -114 61 -12 115 50 127 146 3 30 16
82 28 116 25 73 17 102 -41 150 -30 25 -51 33 -100 39 -59 7 -63 6 -91 -23z"/>
<path d="M10904 20624 c-54 -26 -101 -84 -107 -131 -4 -36 0 -48 24 -80 23
-31 28 -48 29 -91 0 -29 7 -76 17 -104 15 -48 15 -52 -1 -64 -12 -8 -35 -11
-66 -7 -48 5 -48 5 -74 -35 -14 -22 -44 -60 -67 -84 -54 -57 -62 -74 -54 -114
6 -35 29 -54 64 -54 12 0 30 -9 40 -19 30 -30 56 -41 100 -41 32 0 45 6 72 35
34 36 87 160 88 206 1 26 28 59 49 59 6 0 24 12 41 26 38 32 49 82 26 117 -13
21 -16 49 -14 160 3 133 2 135 -24 168 -61 76 -81 84 -143 53z"/>
<path d="M12688 20325 c-67 -39 -79 -50 -87 -83 -6 -20 -11 -48 -11 -62 0 -17
-14 -40 -40 -65 -34 -33 -40 -45 -40 -81 0 -26 10 -62 27 -93 24 -47 31 -53
81 -67 61 -18 96 -8 108 30 3 12 16 35 28 51 12 17 28 44 36 60 8 17 43 57 77
90 l63 61 0 66 c0 84 -15 104 -95 123 -33 8 -62 14 -65 14 -3 1 -40 -20 -82
-44z"/>
<path d="M13070 20084 c-71 -40 -80 -52 -80 -101 0 -24 -7 -59 -15 -78 -7 -19
-17 -63 -20 -98 -3 -34 -8 -79 -11 -101 -4 -36 -1 -42 43 -82 46 -42 47 -45
36 -76 -30 -85 -42 -223 -22 -259 12 -23 88 -59 124 -59 58 0 148 153 126 213
-6 16 -11 41 -11 55 0 16 -16 49 -40 80 -56 75 -60 109 -21 166 18 25 38 66
45 91 8 24 26 59 40 76 22 25 26 38 21 63 -8 36 -50 101 -79 122 -31 21 -86
17 -136 -12z"/>
<path d="M12596 19717 c-113 -113 -116 -119 -116 -247 0 -74 28 -136 70 -156
14 -7 37 -17 51 -24 32 -14 82 -89 73 -110 -4 -8 -10 -26 -14 -40 -5 -14 -20
-62 -35 -107 l-27 -82 20 -33 c12 -18 36 -48 55 -66 55 -54 73 -44 130 68 44
89 47 100 47 172 0 72 -2 80 -31 113 -18 20 -45 43 -60 51 -32 16 -37 35 -13
55 16 13 16 21 -2 121 -5 30 0 47 24 90 17 29 52 73 77 97 25 24 45 51 45 60
0 17 -39 81 -73 119 -16 17 -31 22 -69 22 -49 0 -50 -1 -152 -103z"/>
<path d="M10854 19683 c-12 -2 -38 -18 -58 -36 -34 -30 -37 -36 -42 -107 -8
-108 29 -235 75 -260 29 -15 73 -12 100 6 22 16 23 22 17 76 -4 47 -2 67 13
96 27 55 32 87 22 133 -15 67 -67 105 -127 92z"/>
<path d="M10565 19292 c-45 -16 -51 -21 -67 -66 -9 -27 -28 -61 -42 -75 -14
-14 -30 -39 -36 -55 -9 -25 -8 -34 8 -55 50 -67 145 -90 218 -53 58 30 72 50
84 126 17 107 0 154 -67 182 -38 17 -35 17 -98 -4z"/>
<path d="M10870 19190 c-17 -17 -19 -33 -19 -132 1 -127 19 -206 56 -255 49
-66 110 -28 168 104 26 60 35 95 35 136 0 52 -2 57 -44 95 -75 70 -157 91
-196 52z"/>
<path d="M13135 19174 c-60 -21 -85 -55 -85 -114 0 -27 -7 -65 -16 -84 -16
-33 -16 -36 7 -77 48 -88 128 -99 243 -35 l66 37 0 62 c0 90 -15 130 -66 182
-50 50 -75 55 -149 29z"/>
<path d="M11285 18967 c-50 -27 -61 -37 -63 -61 -6 -47 48 -255 84 -331 19
-39 34 -78 34 -87 0 -44 42 -78 98 -78 51 0 78 31 86 98 4 36 2 70 -5 88 -6
16 -12 79 -14 139 -1 61 -7 121 -13 135 -13 31 -77 93 -117 113 -29 15 -33 14
-90 -16z"/>
<path d="M21237 18980 c-87 -15 -87 -16 -82 -221 3 -98 9 -209 15 -246 6 -37
13 -99 15 -137 7 -101 23 -235 34 -271 5 -16 12 -69 15 -117 3 -48 11 -99 16
-113 6 -14 10 -76 10 -136 0 -90 4 -117 20 -149 11 -22 20 -54 20 -73 0 -19
11 -115 25 -213 14 -98 27 -228 30 -289 3 -110 27 -262 46 -298 24 -43 136
-62 195 -32 59 29 71 53 77 145 4 79 2 89 -24 142 -16 32 -29 70 -29 85 0 15
-9 63 -20 107 -12 48 -18 92 -14 116 4 25 1 47 -10 68 -10 19 -16 56 -16 93 0
36 -8 87 -19 118 -14 40 -23 110 -31 246 -7 105 -15 194 -18 199 -13 23 -32
232 -32 357 1 37 -6 84 -15 105 -14 36 -15 149 -4 339 1 11 -2 47 -7 80 -8 56
-11 61 -46 78 -47 23 -90 28 -151 17z"/>
<path d="M26403 18929 c-33 -10 -88 -80 -137 -177 -24 -48 -26 -58 -20 -139 4
-51 13 -98 21 -112 12 -19 14 -41 8 -102 -3 -44 -11 -94 -17 -111 -25 -76 -38
-355 -54 -1198 -4 -245 -9 -333 -20 -359 -8 -18 -14 -59 -14 -91 0 -31 -5 -72
-11 -90 -11 -30 -10 -34 12 -51 50 -40 165 -89 206 -89 49 0 75 19 126 92 l37
55 -15 44 c-9 24 -21 73 -27 109 -14 86 -14 402 0 515 14 110 18 382 9 650 -4
137 -3 211 5 237 9 29 8 51 -2 92 -12 49 -11 60 10 122 33 102 40 128 40 151
0 11 7 34 15 51 9 17 18 55 22 84 3 32 13 62 25 75 15 16 20 38 22 90 l3 69
-78 47 c-80 48 -106 53 -166 36z"/>
<path d="M30335 18631 c-27 -11 -95 -87 -95 -106 0 -9 -11 -32 -25 -53 -13
-21 -33 -71 -44 -112 -11 -41 -29 -97 -40 -123 -12 -27 -21 -54 -21 -61 0 -7
-13 -37 -29 -67 -16 -30 -31 -78 -34 -106 -3 -29 -18 -90 -32 -135 -29 -93
-53 -188 -64 -263 -5 -27 -21 -81 -36 -120 -28 -72 -34 -94 -59 -205 -8 -36
-19 -81 -25 -100 -6 -19 -11 -56 -11 -82 0 -26 -6 -62 -14 -80 -25 -59 -36
-104 -36 -142 0 -20 -6 -49 -14 -64 -14 -28 -43 -128 -56 -197 -4 -22 -28 -93
-54 -158 -61 -158 -66 -198 -32 -265 33 -65 61 -79 151 -77 83 3 95 7 124 45
32 44 43 77 52 150 21 171 31 238 46 289 27 100 32 135 26 183 -5 39 -2 51 21
80 29 39 61 136 71 218 4 30 13 65 21 77 8 12 14 37 14 56 0 19 7 56 15 83 8
27 20 76 26 109 12 68 36 148 55 186 13 25 10 49 -11 101 -5 13 2 23 26 37 34
21 40 36 68 162 4 20 15 47 24 60 10 13 17 33 17 44 0 11 9 47 19 80 17 54 22
60 52 67 46 9 54 25 68 124 7 48 19 100 27 115 8 15 14 47 14 69 0 38 -6 48
-69 111 -37 38 -73 69 -79 69 -6 0 -16 2 -24 4 -7 3 -22 1 -33 -3z"/>
<path d="M14892 18444 c-59 -30 -90 -134 -62 -208 6 -16 6 -69 1 -138 -6 -86
-5 -122 5 -151 7 -21 21 -88 29 -150 9 -62 20 -134 25 -162 5 -27 9 -79 10
-115 0 -36 7 -76 15 -90 8 -14 14 -36 15 -51 0 -25 46 -129 62 -139 12 -9 20
-63 11 -75 -18 -23 -66 -46 -110 -52 -32 -4 -55 -15 -73 -33 -43 -46 -177
-109 -231 -110 -9 0 -28 -9 -42 -20 -15 -12 -59 -32 -99 -46 -108 -36 -277
-113 -329 -151 -26 -18 -50 -33 -53 -33 -32 0 -193 -94 -294 -171 -67 -52
-146 -109 -175 -127 -28 -18 -86 -62 -127 -98 -168 -145 -238 -199 -297 -226
-35 -15 -69 -28 -77 -28 -8 0 -35 -16 -60 -35 -25 -19 -63 -42 -83 -50 -21 -9
-59 -38 -85 -66 l-47 -51 -63 3 c-80 3 -119 -6 -189 -44 l-56 -31 -64 28 c-35
16 -80 39 -99 52 -20 13 -56 28 -81 32 -24 5 -78 29 -118 53 -40 24 -110 64
-156 89 -46 25 -92 52 -102 61 -19 17 -107 64 -226 121 -38 17 -71 36 -73 40
-11 18 -139 68 -172 68 -24 0 -78 22 -170 70 -74 39 -139 70 -145 70 -12 0
-95 52 -154 96 -23 18 -59 38 -80 44 -41 14 -250 115 -272 133 -14 12 -178 83
-225 97 -62 20 -83 70 -29 70 17 0 46 22 99 75 67 67 78 84 101 153 26 77 26
77 14 232 -10 132 -9 181 4 329 l17 173 -24 25 c-83 89 -222 78 -255 -19 -6
-19 -18 -176 -25 -351 -12 -262 -17 -319 -31 -341 -22 -33 -21 -49 5 -121 25
-72 20 -112 -17 -121 -17 -4 -34 1 -57 19 -18 14 -47 28 -65 32 -18 3 -49 20
-70 37 -55 44 -132 92 -205 128 -35 17 -74 38 -88 45 -14 8 -44 24 -67 35 -24
12 -47 29 -53 39 -5 10 -25 26 -45 35 -19 9 -42 28 -51 41 -8 13 -28 28 -44
33 -18 7 -30 19 -32 33 -2 18 -13 25 -53 34 -27 6 -64 8 -80 5 -44 -9 -145 4
-155 20 -6 9 1 26 21 51 16 20 29 42 29 48 0 6 -10 40 -22 77 -19 60 -25 68
-62 85 -23 10 -57 28 -76 39 -27 16 -45 20 -75 15 -22 -3 -69 -10 -105 -15
-36 -6 -99 -16 -140 -24 -41 -8 -115 -21 -165 -30 -159 -29 -226 -46 -302 -76
-41 -17 -80 -30 -87 -30 -7 0 -43 -13 -79 -30 -37 -16 -74 -30 -83 -30 -10 0
-45 -13 -79 -29 -58 -27 -151 -61 -315 -113 -36 -11 -88 -36 -116 -54 -28 -19
-60 -34 -72 -34 -19 0 -159 -68 -188 -91 -33 -27 -166 -71 -229 -76 -38 -3
-86 -13 -105 -23 -19 -10 -113 -43 -207 -74 -95 -31 -187 -65 -205 -75 -18
-10 -58 -24 -88 -31 -32 -8 -73 -27 -98 -46 -24 -18 -60 -38 -80 -45 -38 -12
-160 -75 -224 -116 -21 -12 -40 -23 -43 -23 -4 0 -21 -11 -38 -24 -18 -13 -56
-36 -85 -50 -29 -15 -84 -51 -123 -81 -38 -30 -94 -68 -123 -85 -30 -16 -60
-37 -67 -46 -7 -8 -30 -25 -52 -36 -22 -11 -60 -35 -86 -55 -119 -90 -201
-145 -251 -171 -30 -16 -64 -33 -75 -40 -11 -6 -49 -25 -85 -41 -114 -53 -392
-264 -427 -325 -15 -26 -17 -123 -3 -163 13 -35 32 -46 112 -63 101 -23 172 5
201 79 16 39 46 66 101 90 17 7 46 25 65 40 20 15 59 40 86 55 28 14 58 40 67
57 10 16 34 37 54 45 40 17 67 34 230 141 61 40 115 73 121 73 5 0 18 9 29 21
10 12 36 30 56 40 21 11 52 32 70 48 55 48 160 120 207 141 25 12 64 39 87 60
24 22 55 42 71 46 55 12 63 16 103 49 22 18 55 38 73 44 19 7 43 22 54 35 15
17 39 27 89 35 64 11 94 22 243 87 29 13 70 24 90 24 20 0 51 9 69 20 19 12
64 28 100 36 110 25 185 53 212 78 14 13 42 26 66 29 39 4 80 23 299 135 55
28 109 51 120 52 11 0 48 13 81 30 34 16 87 36 117 44 31 8 76 26 100 40 24
14 53 26 64 26 11 0 39 13 64 29 24 16 58 33 74 37 32 7 109 48 138 73 13 10
43 15 110 16 53 1 113 8 142 17 28 9 100 19 160 23 61 3 128 10 150 15 60 14
168 12 190 -3 14 -11 17 -21 11 -48 -16 -69 -18 -150 -5 -166 7 -8 36 -25 64
-38 27 -12 70 -43 95 -69 24 -25 48 -46 53 -46 5 0 27 -13 50 -28 23 -16 65
-37 92 -47 28 -10 59 -28 70 -41 13 -15 44 -30 80 -39 33 -9 66 -22 75 -29 17
-16 135 -76 254 -130 44 -20 99 -55 123 -76 23 -22 48 -40 55 -40 7 0 40 -14
73 -30 33 -16 68 -30 78 -30 10 0 37 -8 60 -19 23 -10 65 -28 92 -40 28 -12
62 -35 77 -52 19 -20 36 -29 58 -29 29 0 80 -36 80 -57 0 -15 95 -71 131 -77
23 -4 55 -24 91 -56 31 -28 59 -50 64 -50 4 0 12 -7 19 -16 7 -10 29 -18 55
-20 38 -2 49 -9 83 -48 30 -36 45 -46 68 -46 17 0 50 -5 75 -11 38 -10 51 -9
86 7 l40 18 29 -34 c25 -31 30 -34 48 -22 33 20 41 15 66 -42 28 -64 39 -71
120 -81 55 -6 146 -46 185 -79 26 -23 133 -74 180 -86 25 -6 63 -22 85 -35 22
-12 59 -28 82 -34 22 -6 62 -29 88 -50 26 -21 83 -57 128 -80 45 -22 96 -50
112 -61 27 -18 40 -19 135 -14 81 5 111 11 133 27 19 13 38 17 55 14 55 -11
155 9 209 42 28 17 73 39 100 48 26 9 59 24 73 33 14 9 67 39 119 66 100 52
231 159 244 199 5 13 23 33 40 44 18 11 56 42 84 69 29 27 65 52 81 55 18 4
37 19 52 44 23 35 29 38 84 43 52 5 62 9 90 43 26 31 40 39 86 46 31 5 56 15
59 22 2 8 21 31 41 52 28 27 46 37 69 37 21 0 43 11 68 33 21 18 57 41 79 51
23 10 55 32 71 50 35 36 64 52 183 97 101 38 214 91 255 119 17 11 41 20 54
20 13 0 60 18 105 39 44 21 105 44 135 50 30 6 72 25 94 41 29 21 52 30 79 30
22 0 56 9 77 20 22 11 72 28 111 39 40 11 82 27 94 34 11 8 73 29 136 47 63
18 125 41 139 51 43 34 69 28 416 -88 88 -30 175 -63 192 -73 18 -11 50 -24
70 -29 21 -6 53 -24 72 -40 19 -16 47 -32 62 -35 16 -3 52 -21 81 -39 29 -19
67 -43 84 -53 18 -11 59 -38 91 -61 33 -23 87 -50 120 -61 58 -19 167 -70 243
-112 19 -11 44 -20 56 -20 12 0 32 -9 46 -20 14 -10 58 -28 97 -39 40 -11 114
-42 164 -69 56 -30 133 -60 197 -77 58 -15 121 -36 140 -45 19 -10 60 -23 90
-30 30 -7 89 -25 130 -41 105 -40 125 -43 174 -29 38 10 47 10 71 -6 17 -11
42 -17 67 -15 33 1 39 -1 38 -16 -1 -10 -2 -23 -1 -30 2 -18 65 -53 97 -53 16
-1 40 -7 53 -14 14 -8 31 -12 38 -9 8 3 21 -1 31 -10 54 -49 160 -89 334 -126
21 -5 55 -20 76 -33 21 -14 53 -29 72 -33 19 -4 82 -30 140 -58 77 -36 115
-49 144 -48 33 2 45 -4 78 -36 24 -23 55 -42 81 -48 36 -9 45 -17 66 -57 30
-59 59 -75 107 -60 31 9 38 8 55 -9 10 -10 19 -22 19 -26 0 -5 14 -17 31 -28
16 -11 39 -36 51 -55 33 -54 150 -164 201 -188 33 -16 51 -32 60 -54 8 -18 21
-39 30 -47 10 -7 17 -18 17 -23 0 -5 29 -38 65 -73 41 -41 65 -73 65 -87 1
-32 76 -111 146 -152 33 -19 74 -55 94 -81 19 -26 68 -83 108 -128 40 -45 82
-100 94 -122 11 -22 31 -53 44 -68 13 -16 24 -36 24 -46 0 -10 9 -26 20 -36
29 -26 134 -173 159 -223 42 -83 91 -151 122 -169 17 -10 40 -35 50 -55 11
-21 26 -38 35 -38 8 0 48 15 88 34 64 29 74 37 79 66 15 70 9 105 -23 135 -17
16 -41 50 -53 74 -12 24 -35 56 -51 70 -71 64 -95 93 -101 123 -9 40 -53 101
-105 146 -25 21 -52 58 -69 96 -15 33 -47 83 -70 110 -23 27 -56 73 -73 102
-16 30 -53 75 -81 100 -29 25 -56 60 -62 77 -8 24 -20 35 -54 48 -45 16 -81
50 -81 74 0 8 -16 27 -36 43 -20 17 -45 43 -55 59 -10 15 -42 44 -71 63 -42
27 -59 48 -83 96 -38 76 -49 90 -92 111 -19 8 -47 34 -62 57 -16 22 -38 50
-50 60 -12 11 -30 39 -40 62 -17 38 -28 47 -97 78 -47 22 -98 56 -130 86 -29
28 -59 50 -66 50 -7 0 -46 27 -87 60 -40 33 -90 65 -110 71 -20 6 -54 22 -76
35 -22 12 -67 30 -100 39 -33 10 -97 39 -141 65 -45 26 -106 53 -135 60 -30 7
-74 21 -99 31 -25 10 -66 23 -91 29 -26 5 -59 15 -75 21 -16 6 -56 17 -89 24
-33 8 -91 25 -130 40 -38 14 -85 31 -104 37 -19 5 -44 16 -55 23 -24 16 -163
60 -217 69 -19 3 -51 17 -69 31 -19 14 -44 25 -57 25 -13 0 -41 9 -63 20 -22
11 -55 20 -74 20 -20 0 -50 6 -68 14 -57 25 -231 75 -276 80 -47 5 -196 88
-292 162 -65 50 -85 59 -165 69 -66 8 -109 27 -247 112 -189 115 -305 179
-356 197 -22 8 -72 33 -112 55 -39 23 -78 41 -85 41 -7 0 -34 16 -60 36 -57
43 -84 54 -135 54 -21 0 -59 9 -85 20 -26 11 -58 20 -71 20 -14 0 -46 10 -72
22 -34 16 -67 22 -119 22 -68 0 -74 -1 -106 -32 -32 -31 -36 -32 -114 -32 -45
0 -108 -7 -140 -15 -31 -8 -83 -15 -115 -15 -39 0 -72 -7 -98 -20 -36 -18 -42
-19 -81 -5 -23 8 -56 15 -74 15 -56 0 -65 8 -65 57 0 24 -6 56 -14 71 -8 15
-17 50 -21 77 -4 28 -20 69 -36 94 -34 52 -34 50 -12 111 17 47 17 50 -6 114
-24 69 -25 119 -3 294 9 67 8 91 -4 124 -8 22 -14 56 -14 75 0 103 -101 171
-188 127z m164 -1200 c-5 -14 -9 -15 -19 -5 -9 9 -9 14 3 21 18 11 24 6 16
-16z"/>
<path d="M9505 18301 c-66 -40 -70 -51 -67 -179 4 -217 17 -396 30 -420 7 -12
42 -36 77 -53 58 -27 67 -29 92 -17 49 23 55 53 60 277 7 332 9 311 -34 350
-37 33 -90 61 -115 61 -7 0 -26 -8 -43 -19z"/>
<path d="M15890 15673 c-62 -20 -63 -22 -55 -108 7 -90 32 -137 95 -185 45
-33 106 -89 184 -166 53 -53 72 -64 143 -88 50 -17 90 -36 101 -50 9 -13 34
-26 55 -30 30 -6 37 -11 37 -30 0 -34 206 -254 346 -370 32 -27 66 -61 75 -76
9 -15 36 -37 60 -49 53 -28 193 -163 214 -208 9 -18 30 -40 47 -49 38 -20 98
-77 98 -93 0 -6 16 -27 35 -47 19 -19 35 -43 35 -53 0 -11 22 -32 61 -56 51
-32 73 -39 128 -42 55 -3 72 0 106 19 62 36 85 78 78 141 -3 30 -14 61 -25 73
-10 11 -61 44 -113 73 -75 41 -100 61 -115 89 -49 92 -96 147 -147 175 -34 18
-55 37 -59 51 -3 13 -21 39 -40 57 -19 18 -34 38 -34 45 0 7 -15 23 -32 36
-18 12 -47 37 -64 55 -17 18 -41 33 -53 33 -14 0 -44 22 -78 56 -31 30 -74 67
-97 81 -23 14 -91 76 -151 137 -116 117 -203 194 -245 216 -14 7 -37 23 -52
36 -15 12 -42 25 -60 29 -44 10 -60 24 -53 46 10 32 -50 104 -106 129 -34 14
-57 33 -73 59 -19 29 -37 43 -72 55 -45 15 -141 20 -174 9z"/>
<path d="M33629 15617 c-66 -31 -158 -93 -240 -159 -75 -62 -219 -211 -219
-227 0 -6 -37 -55 -82 -110 -154 -184 -218 -266 -264 -336 -26 -38 -63 -89
-83 -113 -20 -24 -45 -58 -56 -76 -41 -66 -115 -162 -159 -206 -58 -58 -126
-150 -126 -171 0 -9 -7 -23 -16 -30 -9 -8 -28 -32 -42 -54 -13 -22 -48 -71
-77 -110 -29 -38 -60 -85 -69 -104 -16 -30 -89 -126 -122 -159 -8 -7 -33 -43
-57 -80 -24 -37 -51 -73 -60 -81 -9 -7 -17 -18 -17 -24 0 -5 -15 -27 -32 -48
-80 -94 -108 -150 -108 -221 0 -28 7 -42 31 -62 17 -14 43 -28 57 -31 15 -3
48 -12 73 -19 57 -16 113 -1 144 39 11 14 34 42 51 63 17 20 44 62 59 92 15
30 43 73 61 94 19 22 34 46 34 53 0 7 15 30 33 50 48 54 97 125 97 139 0 17
80 134 91 134 6 0 16 15 24 33 7 18 23 41 34 51 12 11 32 42 45 70 13 28 42
71 65 96 23 25 53 61 66 80 24 36 79 102 176 212 31 34 59 75 62 89 4 14 34
51 67 82 33 31 60 65 60 75 0 10 14 31 30 47 17 16 30 34 30 41 0 18 63 95
173 211 53 56 97 109 97 118 0 35 30 73 70 89 25 10 44 25 50 40 10 27 79 85
181 152 95 63 102 73 104 149 3 63 1 67 -29 89 -81 61 -132 69 -207 33z
m-1424 -2037 c8 -13 -20 -24 -41 -16 -20 8 -9 26 16 26 10 0 22 -5 25 -10z"/>
<path d="M4265 15528 c-45 -16 -84 -57 -96 -103 -6 -22 -17 -51 -24 -65 -8
-14 -16 -41 -20 -61 -3 -21 -12 -42 -19 -48 -8 -7 -24 -40 -37 -74 -13 -34
-38 -81 -56 -105 -20 -27 -33 -55 -33 -73 0 -16 -6 -40 -14 -52 -8 -12 -17
-38 -21 -57 -10 -46 -41 -109 -71 -140 -12 -14 -35 -52 -49 -85 -15 -32 -39
-75 -54 -95 -32 -40 -71 -115 -71 -133 0 -7 -13 -33 -28 -58 -15 -24 -34 -69
-41 -99 -9 -36 -27 -71 -52 -102 -22 -26 -39 -55 -39 -65 0 -10 -15 -45 -32
-78 -131 -243 -154 -289 -172 -350 -22 -75 -30 -159 -17 -183 9 -17 6 -24 -23
-45 -24 -19 -36 -39 -45 -74 -7 -26 -19 -63 -28 -80 -11 -23 -14 -47 -10 -82
4 -35 2 -54 -9 -67 -31 -41 -54 -108 -54 -160 0 -41 -6 -63 -31 -102 -20 -32
-35 -75 -43 -124 -8 -46 -25 -97 -44 -129 -17 -31 -33 -78 -37 -108 -4 -30
-14 -69 -21 -87 -8 -18 -14 -48 -14 -67 0 -18 -7 -42 -15 -53 -8 -10 -15 -31
-15 -45 0 -14 -11 -40 -24 -58 -26 -35 -51 -95 -86 -206 -12 -38 -30 -82 -41
-97 -10 -15 -19 -37 -19 -48 0 -36 -31 -118 -51 -136 -22 -19 -24 -51 -8 -88
9 -19 9 -29 0 -39 -24 -30 -51 -135 -61 -239 -6 -60 -20 -144 -32 -186 -11
-43 -22 -111 -24 -152 -2 -41 -7 -95 -12 -119 -6 -27 -6 -54 -1 -68 5 -13 5
-33 0 -46 -5 -12 -9 -82 -9 -154 0 -79 -5 -140 -12 -153 -6 -12 -9 -27 -7 -34
3 -7 0 -91 -7 -187 -9 -128 -17 -183 -30 -208 -15 -28 -16 -41 -7 -75 11 -44
10 -166 -3 -231 -7 -38 -5 -42 37 -87 43 -46 48 -48 99 -48 41 0 64 7 103 30
70 41 89 39 146 -19 44 -45 53 -50 108 -56 33 -4 66 -12 75 -18 23 -18 46 -96
36 -121 -4 -12 -4 -29 0 -37 19 -34 29 -135 20 -199 -6 -36 -12 -114 -16 -174
-3 -61 -8 -115 -12 -120 -3 -6 -10 -31 -14 -56 -7 -45 -22 -122 -33 -170 -3
-14 -8 -59 -11 -100 -4 -41 -12 -84 -19 -95 -7 -12 -16 -66 -20 -120 -4 -55
-15 -121 -25 -147 -10 -26 -25 -89 -35 -140 -9 -51 -21 -115 -26 -143 -6 -27
-8 -65 -6 -83 3 -19 -6 -73 -19 -120 -20 -73 -23 -95 -15 -142 6 -30 13 -158
17 -285 4 -126 8 -250 10 -275 8 -98 33 -293 43 -323 6 -18 13 -103 16 -190 5
-125 10 -167 25 -200 10 -23 21 -54 25 -69 6 -30 67 -78 100 -78 30 0 146 57
178 88 23 22 27 34 27 80 0 39 -6 61 -20 79 -11 14 -20 37 -20 50 0 14 -8 37
-19 51 -19 28 -28 96 -36 277 -3 55 -9 113 -15 130 -5 16 -12 103 -14 193 -3
89 -10 171 -16 183 -6 11 -8 29 -3 42 7 21 12 154 12 329 0 55 5 96 14 115 12
24 26 153 31 293 2 52 26 156 67 290 28 92 36 158 54 429 4 50 13 98 24 120
25 50 32 106 20 159 -17 76 -19 288 -3 309 7 10 14 39 14 64 0 36 6 51 25 69
25 24 27 24 98 11 39 -7 106 -17 147 -21 41 -4 120 -17 175 -28 133 -27 235
-42 385 -58 69 -7 152 -17 185 -22 36 -5 74 -5 93 0 19 5 41 6 50 3 26 -11
127 -18 227 -17 50 0 146 1 215 1 69 0 141 5 160 12 19 6 76 15 125 20 50 4
126 15 170 23 44 9 132 16 195 16 63 0 189 6 280 12 241 16 340 16 377 2 27
-11 52 -10 135 0 57 7 116 18 132 25 21 9 90 9 275 1 135 -6 262 -12 282 -13
23 -1 45 6 64 21 37 30 50 28 79 -11 27 -35 33 -77 17 -119 -4 -13 -5 -84 -1
-158 5 -93 3 -149 -5 -180 -9 -33 -10 -104 -3 -270 7 -185 6 -245 -7 -335 -14
-96 -18 -191 -16 -355 2 -143 -6 -300 -16 -330 -10 -32 -20 -129 -28 -265 -1
-27 -7 -83 -14 -122 -22 -140 -33 -219 -40 -277 -7 -61 -30 -91 -60 -81 -9 2
-40 9 -68 15 -53 10 -127 42 -138 60 -3 5 -28 16 -56 24 -27 8 -69 30 -92 48
-23 19 -61 47 -84 62 -40 27 -44 27 -95 17 -66 -15 -94 -32 -102 -66 -4 -14
-18 -51 -32 -82 l-26 -57 23 -43 c27 -49 120 -116 179 -128 19 -4 54 -16 78
-26 24 -11 65 -19 92 -19 36 0 55 -6 77 -24 30 -25 115 -53 200 -65 29 -4 60
-14 70 -22 22 -19 144 -59 181 -59 15 0 47 -12 72 -26 34 -20 64 -28 120 -32
58 -4 82 -10 106 -28 17 -13 40 -24 51 -24 11 0 46 -9 79 -21 63 -22 104 -31
229 -54 106 -19 149 -32 215 -64 49 -25 118 -41 231 -55 19 -2 53 -16 74 -30
24 -16 51 -26 74 -26 22 0 66 -14 107 -34 38 -19 94 -37 124 -41 62 -8 129
-37 156 -66 9 -10 24 -19 33 -19 9 0 26 -7 39 -15 34 -24 181 -81 242 -94 71
-15 159 -49 185 -72 11 -10 67 -36 124 -58 57 -22 118 -52 136 -65 35 -27 116
-61 181 -76 22 -5 71 -30 108 -55 37 -25 77 -45 89 -45 12 0 45 -12 72 -25 29
-14 68 -25 92 -25 32 0 50 -7 75 -28 18 -16 91 -57 163 -92 71 -34 159 -82
195 -106 45 -31 75 -44 99 -44 24 0 43 -8 62 -26 17 -16 50 -30 90 -40 79 -17
161 -51 269 -109 62 -34 125 -33 176 1 55 38 81 71 87 113 3 20 6 42 8 50 3 9
-13 24 -38 38 -32 18 -43 31 -43 48 0 44 -23 55 -103 49 l-72 -6 -81 55 c-80
55 -149 88 -254 122 -30 10 -76 31 -101 47 -26 15 -72 37 -103 48 -31 10 -69
26 -84 34 -92 49 -244 116 -282 125 -42 9 -66 17 -205 66 -27 10 -86 44 -129
76 -57 42 -89 59 -111 59 -16 0 -47 11 -67 25 -20 13 -56 29 -80 34 -66 15
-210 74 -285 118 -86 49 -145 73 -183 73 -38 0 -118 19 -151 36 -14 7 -50 22
-80 33 -30 12 -70 32 -89 46 -19 14 -44 25 -57 25 -13 0 -40 8 -61 19 -20 10
-71 26 -112 36 -80 19 -141 42 -204 77 -22 12 -69 25 -105 29 -117 13 -244 37
-311 58 -36 11 -82 21 -103 21 -21 0 -59 10 -85 21 -50 23 -197 68 -223 69 -9
0 -41 14 -72 30 -31 16 -70 30 -87 30 -31 0 -140 48 -140 62 0 4 18 17 40 28
24 12 45 32 52 48 5 15 19 48 30 73 18 41 20 75 25 370 2 178 4 365 3 414 -1
57 4 105 13 131 12 31 13 59 7 115 -6 56 -5 80 6 101 11 20 11 34 3 55 -6 16
-8 52 -4 83 3 30 8 202 9 381 3 218 8 334 15 348 9 15 9 32 1 62 -6 22 -11 90
-12 152 -2 251 -1 421 3 582 3 94 1 178 -3 187 -4 9 -1 68 7 130 11 89 12 122
3 148 -6 19 -12 60 -14 90 -1 30 -5 69 -9 86 -4 20 1 52 15 95 19 57 22 91 25
299 2 130 9 266 15 303 11 59 10 73 -6 117 -16 45 -17 55 -4 98 14 50 14 56 6
167 -13 170 -13 269 0 362 31 216 31 214 -8 256 -33 35 -39 37 -97 37 -36 0
-74 -6 -91 -15 -31 -16 -55 -49 -45 -64 3 -5 -5 -33 -17 -63 -18 -44 -22 -71
-21 -155 1 -95 3 -105 27 -134 31 -37 33 -67 6 -102 -16 -20 -19 -34 -14 -74
3 -26 13 -65 21 -86 14 -32 14 -45 3 -91 -7 -30 -10 -76 -7 -103 3 -26 1 -86
-5 -133 -5 -47 -11 -139 -14 -205 -8 -248 -12 -324 -19 -335 -4 -6 -8 -174 -9
-373 -3 -409 -4 -416 -74 -443 -20 -8 -59 -25 -87 -38 -27 -14 -71 -27 -98
-30 -26 -3 -61 -13 -78 -22 -25 -12 -62 -15 -197 -14 -263 3 -831 -10 -897
-20 -33 -6 -163 -15 -290 -20 -126 -6 -243 -15 -260 -21 -16 -6 -142 -14 -280
-19 -137 -5 -282 -12 -322 -16 -45 -4 -84 -2 -107 6 -34 11 -51 13 -196 25
-278 23 -289 24 -435 55 -22 5 -67 12 -100 16 -33 4 -74 13 -92 20 -18 8 -54
14 -81 14 -27 0 -69 7 -92 15 -23 8 -70 15 -103 15 -33 0 -90 9 -126 20 -36
10 -82 19 -101 18 -19 -1 -71 7 -115 18 -83 20 -171 23 -265 10 -46 -7 -58 -5
-69 8 -12 14 -11 25 4 71 16 47 17 59 5 94 -7 22 -10 46 -7 54 3 8 -1 38 -10
67 -12 43 -13 62 -4 104 7 28 16 70 20 93 8 44 5 421 -4 460 -3 12 4 48 14 80
12 34 24 113 30 191 6 73 15 142 21 152 5 10 10 28 10 40 0 12 11 54 24 93 16
49 26 105 30 175 4 80 10 111 26 136 11 19 20 45 20 58 0 14 12 43 27 64 29
44 53 113 53 156 0 31 38 113 78 167 29 40 72 160 72 204 0 18 12 59 25 92 14
33 25 74 25 91 0 17 11 65 24 105 13 41 32 103 41 139 10 36 26 81 36 100 10
19 23 71 28 115 18 138 26 179 48 220 12 22 26 67 31 100 5 33 24 98 42 145
17 47 35 101 39 121 4 20 29 77 54 127 26 50 47 98 47 107 0 27 69 178 94 205
27 30 66 107 107 209 33 84 65 150 109 226 16 28 63 118 105 202 42 83 89 168
106 189 16 20 29 44 29 53 0 10 12 33 26 52 29 38 104 192 135 277 6 18 23 42
38 53 32 25 50 56 51 86 0 36 -45 128 -75 151 -31 24 -97 29 -150 10z"/>
<path d="M20535 13672 c-1 -1 -80 -5 -175 -8 -95 -3 -184 -10 -197 -15 -13 -5
-36 -9 -49 -9 -14 0 -53 -13 -87 -30 -62 -29 -62 -29 -257 -30 -400 -1 -461
-5 -507 -28 -23 -12 -53 -22 -67 -22 -14 0 -41 -8 -61 -17 -30 -14 -43 -15
-88 -6 -51 11 -53 11 -105 -24 -28 -20 -63 -35 -76 -35 -29 0 -154 40 -181 58
-28 20 -79 17 -98 -4 -10 -10 -17 -33 -17 -50 0 -23 -8 -37 -29 -53 -39 -29
-46 -76 -20 -137 68 -155 71 -174 65 -331 -3 -80 -5 -191 -4 -246 1 -55 2
-118 1 -140 -1 -22 -2 -56 -2 -75 -1 -19 -1 -78 0 -131 0 -56 -4 -106 -10
-118 -9 -15 -9 -54 -2 -144 6 -67 8 -156 6 -197 -2 -41 -8 -148 -13 -237 -6
-96 -6 -183 0 -212 5 -32 5 -64 -3 -93 -6 -23 -13 -56 -16 -73 -8 -49 -34
-233 -49 -340 -8 -55 -17 -117 -20 -137 -5 -29 -1 -43 14 -62 17 -22 18 -30 8
-59 -16 -46 -13 -533 4 -592 7 -25 9 -62 6 -87 -9 -52 -8 -92 0 -176 3 -39 1
-74 -5 -91 -7 -15 -13 -88 -15 -163 -3 -97 -8 -144 -20 -165 -11 -23 -17 -73
-20 -189 -5 -172 -15 -249 -39 -304 -17 -38 -37 -201 -36 -290 0 -30 -2 -113
-4 -185 -3 -95 0 -137 10 -157 18 -38 16 -88 -9 -198 -15 -65 -23 -133 -24
-215 -2 -161 -19 -353 -34 -390 -7 -16 -16 -100 -21 -185 -6 -104 -15 -177
-28 -220 -26 -83 -46 -370 -37 -517 5 -84 3 -119 -10 -158 -9 -31 -17 -103
-20 -190 -4 -134 -10 -168 -41 -245 -9 -23 -15 -84 -17 -170 -2 -74 -9 -175
-16 -225 -8 -49 -14 -135 -14 -190 -1 -77 -6 -109 -21 -140 -15 -32 -21 -73
-26 -200 -8 -162 -19 -260 -32 -282 -6 -10 -22 -139 -32 -268 -2 -22 -10 -58
-18 -80 -9 -22 -18 -71 -21 -110 -9 -107 -21 -167 -40 -203 -13 -26 -17 -59
-17 -175 0 -78 0 -151 0 -162 0 -122 -19 -187 -69 -229 -25 -21 -39 -25 -68
-21 -69 9 -217 19 -237 17 -11 -1 -34 -9 -51 -17 -25 -12 -76 -14 -283 -10
-157 3 -260 9 -273 16 -15 8 -45 8 -114 -1 -52 -7 -116 -10 -144 -6 -37 5 -58
2 -81 -10 -23 -12 -46 -14 -88 -10 -35 4 -92 0 -151 -10 -59 -10 -196 -20
-360 -25 -146 -5 -290 -11 -320 -12 -30 -2 -100 1 -155 7 -164 16 -273 15
-340 -4 -43 -12 -90 -16 -170 -15 -99 2 -114 0 -151 -21 -38 -21 -50 -23 -120
-18 -61 5 -88 3 -117 -10 -47 -19 -167 -19 -218 1 -28 11 -47 12 -75 5 -55
-14 -162 -8 -209 12 -21 9 -60 17 -85 17 -25 0 -99 3 -165 5 -66 3 -141 4
-167 4 -26 0 -62 7 -80 16 -25 13 -48 15 -112 10 -45 -3 -200 -7 -346 -10
-248 -3 -360 4 -384 25 -5 5 0 28 11 56 31 72 23 188 -17 266 -36 68 -38 114
-8 152 19 25 26 27 73 23 32 -3 64 -13 84 -27 17 -13 48 -27 69 -33 20 -6 55
-25 78 -44 68 -55 337 -185 429 -207 36 -9 98 -13 152 -12 51 1 113 -2 138 -8
37 -8 56 -7 99 6 29 9 62 17 73 17 28 0 91 65 114 118 11 25 25 43 36 44 44 3
79 -5 112 -28 20 -13 49 -24 66 -24 16 0 58 -7 92 -15 45 -11 105 -14 220 -11
122 3 164 1 185 -10 21 -11 33 -11 55 -3 15 6 62 10 103 8 140 -4 166 -1 199
26 16 15 57 35 90 46 80 27 114 61 135 131 20 71 22 218 2 256 -8 15 -34 42
-59 60 -25 18 -48 40 -51 50 -4 10 -19 28 -36 40 -18 14 -33 38 -40 62 -15 55
-43 68 -117 52 -52 -11 -59 -10 -102 12 -63 33 -225 106 -234 106 -4 0 -30 15
-57 34 -27 18 -64 36 -83 40 -19 3 -42 15 -52 26 -10 11 -34 24 -54 31 -20 6
-49 24 -66 38 -50 45 -134 93 -178 103 -23 4 -63 12 -89 16 -51 10 -96 34
-105 58 -3 9 5 26 20 42 25 24 28 25 66 12 37 -12 42 -11 93 18 29 17 73 35
98 42 66 16 88 30 95 59 3 14 19 40 34 56 43 46 47 96 11 164 -16 31 -32 69
-35 84 -4 20 -16 33 -41 43 -52 22 -119 28 -152 15 -68 -29 -293 31 -386 103
-18 13 -48 31 -67 39 -19 8 -44 27 -57 41 -28 33 -55 30 -147 -14 -33 -16 -73
-32 -90 -36 -16 -4 -55 -18 -85 -31 -30 -14 -81 -28 -112 -33 -83 -12 -248
-68 -285 -96 -23 -17 -33 -33 -33 -52 0 -33 -21 -94 -40 -117 -15 -18 -46 -17
-127 4 -164 42 -249 60 -341 73 -77 11 -84 11 -110 -8 -15 -11 -39 -43 -54
-70 -21 -40 -25 -57 -19 -89 5 -35 14 -45 68 -82 64 -44 116 -63 170 -63 18 0
54 -8 80 -19 31 -11 102 -22 197 -30 82 -7 165 -18 185 -25 139 -52 278 -83
401 -91 60 -4 133 -24 295 -84 17 -6 51 -13 77 -16 30 -4 59 -16 77 -31 16
-13 71 -37 123 -53 124 -39 123 -39 138 -65 14 -27 50 -46 85 -46 14 0 42 -15
64 -35 21 -19 43 -35 48 -35 5 0 36 -16 69 -36 116 -71 232 -124 273 -124 28
0 49 -8 70 -26 17 -14 55 -35 84 -46 29 -11 72 -39 97 -63 25 -23 59 -47 75
-52 26 -8 30 -15 33 -50 6 -75 41 -72 -663 -57 -137 3 -275 5 -305 5 -48 -1
-58 3 -87 31 -23 22 -33 41 -33 62 0 64 -127 232 -198 261 -42 18 -149 19
-180 1 -13 -7 -39 -32 -58 -56 -26 -32 -34 -53 -34 -82 0 -56 14 -76 75 -102
31 -14 61 -36 71 -53 10 -15 35 -47 56 -70 31 -34 38 -50 38 -83 0 -34 -4 -42
-30 -55 -35 -18 -64 -19 -93 -3 -12 6 -46 15 -75 19 -58 8 -162 57 -204 96
-20 20 -32 24 -56 18 -22 -4 -36 0 -58 18 -16 13 -45 29 -65 36 -20 6 -46 23
-59 36 -13 14 -48 34 -78 45 -30 12 -66 30 -80 40 -31 25 -108 27 -140 4 -15
-10 -22 -25 -22 -49 0 -46 -18 -54 -110 -48 -91 7 -115 -3 -129 -53 -13 -46
-3 -130 20 -169 28 -47 34 -101 15 -129 -41 -64 -122 -35 -244 85 -21 20 -52
44 -70 53 -18 9 -53 45 -77 79 -82 114 -90 117 -158 60 -55 -46 -70 -77 -66
-140 3 -44 1 -49 -28 -68 -39 -24 -42 -32 -50 -109 -4 -41 -15 -75 -35 -105
-15 -25 -28 -53 -28 -62 0 -25 -32 -122 -44 -135 -6 -6 -25 -14 -43 -17 -54
-10 -60 5 -50 127 9 105 8 108 -17 146 -28 43 -45 49 -151 53 l-60 2 -20 -41
c-11 -23 -37 -57 -57 -76 -37 -35 -38 -36 -38 -112 0 -57 5 -85 20 -113 11
-21 20 -50 20 -65 0 -31 23 -58 51 -58 28 0 116 -47 181 -97 55 -42 145 -72
170 -57 5 3 20 3 34 0 22 -6 24 -11 24 -70 0 -44 -8 -85 -26 -132 -29 -77 -28
-103 9 -218 13 -42 33 -79 50 -95 15 -14 41 -50 57 -78 17 -29 48 -70 70 -90
32 -31 40 -45 40 -74 0 -39 11 -56 90 -137 32 -33 57 -51 66 -48 8 3 23 25 34
48 11 24 30 56 42 71 20 24 23 39 20 94 -2 71 -18 107 -71 157 -17 17 -31 40
-31 52 0 12 -15 35 -34 52 -51 44 -70 87 -61 136 4 23 10 68 14 101 6 59 42
137 98 211 13 17 23 40 23 50 0 11 7 29 15 41 14 20 25 22 123 24 222 3 345
-3 402 -20 31 -10 72 -16 91 -13 20 2 63 -3 96 -11 71 -19 442 -24 538 -9 33
5 63 8 66 6 3 -2 98 3 210 11 200 14 204 14 225 -6 27 -25 76 -39 141 -39 58
0 140 -15 193 -34 41 -16 244 -14 360 3 41 6 120 15 175 21 55 6 129 17 165
25 62 14 221 19 440 16 223 -4 490 -1 555 6 39 4 100 4 137 -1 78 -11 299 13
393 42 18 5 77 6 140 2 77 -5 131 -3 180 6 93 17 247 19 424 5 98 -8 155 -8
182 -1 21 5 56 14 78 20 52 14 91 13 137 -4 37 -13 194 -14 349 -4 99 7 168
99 181 243 8 86 14 104 58 178 26 43 28 54 22 104 -5 40 -1 75 13 127 11 39
22 107 26 151 4 44 11 98 17 120 12 49 26 169 32 290 3 50 10 115 15 145 6 36
5 62 -1 74 -15 28 -2 146 23 203 22 51 24 67 15 212 -3 65 -1 107 9 135 7 23
16 79 20 126 4 47 12 96 17 110 5 14 11 72 12 131 1 58 5 110 9 116 17 28 40
160 47 273 4 69 12 188 18 265 6 77 13 213 16 302 3 89 10 171 15 182 6 11 11
32 11 48 0 15 7 46 14 69 13 37 33 177 42 299 2 28 10 136 19 240 8 105 15
215 15 245 -1 30 2 102 5 160 3 58 7 128 8 155 1 28 6 57 12 65 5 8 11 119 12
245 2 127 5 266 7 310 15 276 18 320 27 336 5 10 9 49 9 88 0 38 5 82 12 98 7
17 12 104 14 218 2 104 8 201 14 215 5 14 9 48 9 75 0 100 16 230 34 263 14
26 15 36 6 55 -8 13 -14 76 -16 152 -2 72 -7 169 -12 217 -5 48 -7 97 -4 108
5 20 -5 65 -29 132 -7 18 -6 38 2 63 9 26 9 44 1 66 -8 25 -7 37 6 62 9 18 17
57 18 87 1 30 7 80 14 110 7 30 14 132 15 226 2 108 8 179 15 193 9 16 10 35
2 71 -8 39 -7 56 5 85 11 28 13 54 8 106 -5 56 -3 78 11 109 15 34 16 49 6
133 -6 53 -11 127 -11 167 0 44 -6 82 -15 100 -13 26 -14 34 -1 58 35 69 47
224 24 322 -10 44 -9 55 5 80 18 31 22 80 8 95 -19 21 -10 578 10 599 16 17
71 7 109 -19 32 -22 47 -26 106 -24 93 2 301 34 344 52 19 8 80 18 135 22 55
4 130 15 167 26 37 11 107 21 155 23 66 2 99 9 130 25 24 12 61 21 86 21 24 0
66 6 93 14 27 8 81 17 119 20 39 4 91 11 116 17 36 8 59 7 103 -4 47 -13 75
-13 164 -4 59 6 123 10 142 9 87 -4 237 -20 251 -26 9 -4 42 0 72 9 40 11 89
15 169 14 62 -1 142 3 177 9 59 11 66 11 85 -7 12 -10 55 -28 96 -41 61 -18
98 -22 205 -22 97 0 149 -5 203 -19 84 -22 331 -27 379 -8 24 10 161 20 268
20 57 0 160 -13 171 -22 7 -6 58 -9 115 -8 109 3 213 -9 264 -30 16 -7 40 -10
52 -6 13 3 62 -4 109 -16 59 -14 98 -19 123 -14 20 4 86 7 146 6 80 -2 122 2
155 14 37 13 57 14 110 6 36 -5 110 -12 164 -16 64 -4 115 -12 141 -24 23 -10
80 -22 126 -26 48 -4 112 -18 149 -32 36 -14 83 -31 105 -40 28 -10 58 -13
100 -8 45 4 81 1 145 -15 47 -12 103 -24 125 -27 22 -2 54 -11 72 -19 17 -8
42 -14 56 -14 13 0 42 -6 63 -14 54 -18 275 -30 307 -15 19 9 31 8 55 -5 27
-14 56 -15 205 -10 161 7 177 5 239 -15 47 -16 86 -21 139 -20 41 1 121 -5
179 -14 105 -15 188 -25 271 -32 24 -2 117 -10 207 -19 122 -12 184 -14 247
-7 46 6 94 8 107 5 13 -3 79 -7 148 -9 69 -2 157 -6 195 -9 39 -3 151 -7 251
-9 99 -2 186 -7 193 -12 14 -8 59 -13 176 -19 39 -2 84 -8 100 -14 18 -5 86
-6 168 -2 183 10 365 6 401 -9 20 -8 63 -10 135 -5 83 5 120 3 170 -10 35 -9
93 -19 128 -21 35 -3 72 -9 81 -14 9 -4 42 -11 72 -15 76 -9 142 -24 225 -51
39 -13 84 -26 102 -30 51 -10 58 -26 45 -103 -15 -87 -17 -178 -7 -327 6 -98
5 -132 -9 -183 -9 -35 -16 -98 -17 -140 0 -42 -5 -104 -10 -137 -24 -147 -41
-591 -26 -640 4 -11 9 -232 12 -490 3 -259 6 -506 7 -550 1 -44 -4 -138 -11
-208 -7 -72 -9 -164 -5 -211 4 -52 2 -96 -5 -117 -8 -24 -8 -57 -1 -114 18
-138 13 -375 -10 -535 -10 -70 -5 -694 6 -712 2 -3 5 -60 5 -125 1 -91 -3
-128 -16 -161 -13 -32 -16 -61 -13 -110 3 -37 1 -96 -3 -132 -19 -139 -37
-365 -32 -396 3 -17 0 -48 -6 -67 -7 -20 -14 -82 -16 -139 -8 -217 -27 -391
-47 -425 -16 -27 -17 -40 -9 -90 11 -73 2 -251 -14 -278 -12 -19 -18 -88 -31
-379 -3 -60 -7 -112 -9 -116 -2 -4 -7 -58 -10 -121 -6 -127 -19 -214 -39 -274
-19 -55 -44 -169 -51 -236 -3 -31 -12 -77 -20 -103 -14 -47 -13 -74 7 -153 7
-30 7 -51 0 -73 -6 -17 -14 -65 -17 -108 -8 -104 -32 -214 -62 -289 -13 -34
-22 -70 -19 -80 7 -23 -26 -225 -54 -328 -69 -257 -82 -300 -98 -325 -19 -30
-33 -88 -36 -155 -2 -27 -11 -67 -20 -87 -9 -21 -16 -49 -16 -62 0 -14 -7 -51
-15 -83 -8 -32 -17 -89 -20 -127 -6 -89 -16 -99 -92 -96 -32 2 -69 2 -83 2
-14 -1 -117 -3 -230 -5 -113 -3 -218 -9 -235 -14 -18 -6 -125 -7 -265 -3 -129
4 -284 3 -345 -1 -62 -5 -149 -4 -200 1 -49 5 -187 7 -305 5 -242 -6 -262 -6
-415 -2 -60 2 -166 -1 -235 -6 -157 -11 -215 -10 -365 7 -104 12 -133 12 -220
-1 -55 -8 -120 -16 -145 -17 -25 -1 -78 -6 -118 -10 -39 -5 -132 -9 -205 -10
-97 -2 -142 -7 -169 -19 -21 -10 -57 -16 -81 -16 -23 1 -66 -4 -95 -10 -39
-10 -60 -10 -83 -2 -18 6 -62 11 -98 11 -36 0 -92 6 -123 14 -33 8 -62 9 -70
4 -15 -10 -162 1 -198 14 -14 6 -75 11 -136 13 -82 2 -123 8 -155 22 -40 17
-70 18 -334 16 -201 -1 -301 2 -325 10 -22 7 -114 12 -245 13 -115 1 -268 4
-340 7 -71 3 -215 7 -320 9 -150 3 -199 7 -233 20 -34 14 -58 16 -115 10 -40
-4 -110 -3 -157 1 -62 7 -100 5 -140 -4 -30 -7 -81 -13 -115 -13 -117 0 -381
23 -455 40 -41 9 -93 18 -115 19 -22 2 -60 6 -85 9 -43 6 -192 11 -648 20
-146 3 -236 9 -285 20 -180 41 -272 52 -537 67 -315 18 -384 24 -400 34 -15
10 -70 18 -215 33 -44 5 -91 14 -104 21 -13 7 -62 14 -110 16 -53 2 -101 10
-126 21 -54 23 -303 28 -354 7 -31 -13 -40 -12 -105 10 -115 40 -142 42 -171
13 -14 -14 -25 -33 -25 -42 0 -9 -16 -41 -35 -70 -19 -29 -35 -57 -35 -62 0
-6 9 -31 19 -56 16 -36 26 -47 55 -54 20 -6 56 -24 81 -41 55 -37 60 -38 116
-7 60 32 108 39 192 27 40 -6 133 -13 207 -15 183 -6 227 -13 282 -48 35 -22
57 -28 90 -27 23 1 66 -5 93 -14 28 -8 124 -21 215 -28 230 -18 237 -18 405
-20 84 -1 172 -7 200 -14 39 -11 57 -11 85 -1 37 12 122 2 183 -23 16 -6 49
-11 75 -11 26 0 67 -10 92 -21 42 -19 62 -20 275 -18 127 1 266 -3 310 -9 44
-6 100 -10 125 -10 66 0 265 -18 339 -31 47 -9 72 -9 98 0 19 6 49 8 66 4 75
-17 201 -29 327 -31 74 -1 153 -5 175 -8 22 -4 99 -1 170 7 121 13 134 13 190
-5 62 -19 71 -19 216 13 36 8 55 7 85 -5 58 -22 132 -30 304 -32 85 -2 263
-10 395 -19 304 -21 284 -20 388 -5 72 10 98 10 142 0 34 -8 72 -10 102 -6 60
10 51 10 153 -4 47 -6 157 -15 245 -21 88 -5 176 -11 195 -12 19 -2 41 -6 48
-11 26 -16 400 -24 597 -12 127 7 352 35 461 58 29 6 56 8 62 4 12 -7 414 -21
457 -16 28 4 274 4 415 0 81 -2 192 5 290 19 95 13 212 13 267 1 72 -17 514
-20 803 -6 151 7 282 11 290 8 35 -12 40 -23 26 -51 -9 -17 -19 -93 -26 -200
-9 -147 -14 -178 -31 -199 -10 -14 -19 -32 -19 -41 0 -9 -9 -33 -20 -54 -11
-20 -20 -43 -20 -51 0 -7 -9 -25 -20 -39 -11 -14 -20 -32 -20 -41 0 -35 -37
-56 -99 -56 -32 0 -77 -7 -100 -15 -23 -8 -61 -15 -84 -16 -61 -2 -267 0 -334
3 -32 1 -110 -1 -173 -6 -63 -4 -146 -9 -185 -11 -260 -14 -317 -20 -415 -45
-182 -46 -199 -49 -234 -39 -25 7 -54 5 -103 -6 -62 -13 -119 -18 -363 -30
-160 -8 -405 -1 -540 15 -52 6 -124 11 -160 10 -96 -3 -158 -2 -225 5 -63 6
-374 14 -507 13 -128 -1 -140 0 -228 10 -95 12 -187 29 -201 38 -5 3 -73 7
-152 10 -187 6 -289 11 -362 19 -33 4 -150 11 -260 16 -110 5 -249 12 -310 15
-60 4 -130 5 -155 4 -81 -4 -104 -2 -170 9 -36 6 -110 17 -165 24 -55 8 -115
21 -133 31 -27 14 -61 17 -210 16 -97 0 -190 -1 -207 -2 -16 0 -64 4 -105 11
-77 13 -99 13 -357 6 -109 -3 -163 -9 -190 -20 -48 -21 -362 -24 -433 -5 -26
7 -67 10 -98 6 -36 -4 -63 -2 -88 9 -20 8 -58 15 -84 15 -26 0 -61 5 -79 11
-22 8 -40 8 -62 0 -22 -8 -51 -7 -105 1 -68 11 -79 10 -110 -7 -31 -16 -42
-17 -95 -7 -52 9 -67 9 -98 -4 -20 -9 -74 -18 -121 -21 -69 -4 -98 -1 -154 16
-44 14 -95 21 -145 21 -43 0 -82 5 -88 11 -18 18 -131 32 -278 34 -122 2 -146
5 -190 25 -46 21 -53 22 -112 10 -34 -6 -67 -9 -73 -5 -19 11 -311 14 -354 3
-26 -6 -60 -6 -110 3 -39 7 -145 14 -236 15 -91 1 -201 5 -245 8 -87 7 -161 8
-272 6 -48 -1 -81 4 -102 14 -30 16 -85 24 -211 31 -36 2 -78 8 -93 14 -16 6
-48 11 -71 11 -24 0 -60 7 -80 15 -25 11 -73 15 -159 16 -69 0 -146 6 -177 14
-60 15 -105 18 -285 15 -66 -1 -130 -1 -142 0 -51 4 -371 5 -563 0 -180 -4
-209 -2 -237 13 -18 9 -52 17 -76 17 -25 0 -80 12 -123 26 -44 15 -104 27
-134 28 -36 2 -67 10 -89 23 -24 15 -43 20 -67 16 -24 -4 -40 0 -60 16 -17 13
-40 21 -63 20 -58 -1 -172 16 -226 34 -62 20 -269 37 -310 26 -46 -14 -91 -11
-130 8 -33 16 -42 16 -138 0 -86 -14 -127 -16 -260 -8 -87 5 -173 7 -190 5
-72 -11 -478 34 -553 61 -22 9 -53 13 -70 9 -18 -3 -54 2 -89 14 -46 15 -90
20 -189 21 -115 1 -136 4 -195 27 -111 45 -328 59 -366 25 -11 -10 -35 -26
-53 -35 -46 -24 -59 -56 -44 -112 7 -24 12 -55 12 -69 0 -16 11 -32 30 -47 17
-12 30 -28 30 -35 0 -7 9 -22 20 -33 16 -16 24 -18 40 -10 15 8 105 7 313 -1
160 -7 304 -11 320 -10 104 8 190 0 392 -33 50 -9 116 -15 149 -16 40 0 69 -6
91 -20 29 -18 45 -19 201 -14 93 2 315 5 494 6 275 2 337 -1 400 -15 55 -13
97 -16 155 -11 75 5 85 4 160 -27 44 -18 103 -36 132 -40 28 -4 86 -23 130
-42 64 -30 95 -37 173 -43 52 -4 108 -13 124 -21 42 -22 414 -31 736 -18 85 3
171 6 190 7 39 0 262 -17 420 -33 58 -6 155 -14 215 -18 61 -5 126 -14 145
-21 19 -6 69 -13 110 -15 77 -2 165 -18 350 -61 126 -29 153 -30 476 -21 209
6 260 4 302 -8 40 -12 56 -13 79 -4 33 14 291 20 343 8 19 -5 60 -5 90 -1 30
4 78 4 105 0 28 -4 77 -10 110 -13 33 -2 78 -9 100 -14 71 -18 118 -23 225
-26 171 -6 208 -10 355 -42 149 -32 155 -33 495 -17 258 11 437 1 597 -36 38
-8 79 -9 150 -2 54 6 110 8 125 5 15 -3 42 0 60 7 18 6 80 14 138 16 58 3 143
9 190 13 47 5 167 7 267 4 105 -2 197 0 218 6 28 7 55 5 118 -9 145 -32 201
-40 298 -40 52 0 112 -5 134 -10 38 -10 186 -25 345 -36 41 -2 126 -9 187 -15
62 -6 122 -7 134 -4 23 8 191 -9 314 -30 44 -8 127 -14 185 -14 111 0 314 -15
415 -31 33 -6 132 -12 220 -15 88 -3 174 -8 190 -12 17 -3 93 -7 170 -8 77 -1
199 -7 270 -13 72 -6 146 -8 165 -4 19 4 62 5 95 2 33 -3 77 -2 97 3 23 4 72
1 128 -9 61 -10 128 -14 207 -11 65 3 128 1 141 -4 27 -10 571 34 613 49 14 6
42 13 63 16 20 3 48 13 61 22 14 9 63 20 113 25 134 14 364 27 378 22 6 -2 45
3 85 11 73 15 297 15 409 -1 51 -6 240 -4 313 4 29 3 74 19 110 40 34 19 88
39 119 45 82 14 94 31 79 109 l-13 62 45 66 c25 36 50 84 57 106 7 22 26 59
43 82 25 35 31 56 37 127 9 93 33 177 56 196 21 18 18 31 -21 100 -38 67 -44
104 -19 114 25 9 101 7 168 -5 56 -11 66 -10 101 9 51 26 94 68 102 101 3 14
19 44 34 66 38 56 66 151 79 275 12 113 39 228 71 299 10 24 19 50 19 59 0 8
9 29 19 46 11 17 24 65 30 106 19 138 27 178 38 192 6 7 14 36 18 63 3 28 13
68 20 90 8 22 19 68 24 102 5 34 16 72 24 85 11 17 15 63 16 175 1 107 6 163
16 188 8 19 15 46 15 61 0 49 24 107 57 140 37 38 43 59 13 49 -15 -5 -21 0
-26 20 -8 33 -2 39 43 40 31 0 37 4 50 38 15 36 14 39 -5 60 -14 16 -19 30
-15 50 4 23 -1 35 -28 63 l-33 34 13 98 c7 53 16 138 21 187 11 109 17 131 46
170 17 23 20 35 13 54 -5 13 -6 33 -2 45 4 12 8 109 9 216 1 107 7 227 13 265
26 175 31 238 29 355 -1 69 2 132 7 139 5 8 10 59 12 114 2 54 8 107 13 117 5
9 7 33 4 52 -4 25 0 47 16 77 18 36 20 47 10 77 -8 23 -10 82 -6 177 3 78 8
198 11 267 2 69 9 154 14 190 6 35 8 83 4 105 -4 29 0 52 12 76 12 22 17 54
16 94 -1 73 -3 215 -2 253 0 15 1 69 1 121 1 63 6 103 16 123 9 17 12 37 8 46
-4 10 -8 148 -10 307 -2 160 -5 380 -8 490 -2 115 0 223 6 255 11 60 12 202 5
515 -8 281 -8 284 -3 440 10 313 6 558 -10 607 -13 39 -13 55 -4 84 7 20 9 50
6 67 -4 20 -1 39 10 55 12 19 15 48 13 140 -1 65 3 173 9 242 7 69 12 247 12
395 1 149 2 349 4 445 3 170 2 176 -22 218 -16 28 -32 44 -50 47 -15 3 -47 10
-72 17 -25 6 -72 14 -105 18 -33 4 -73 12 -88 18 -16 7 -43 12 -61 12 -18 0
-59 10 -92 22 -34 12 -89 22 -129 24 -165 7 -260 19 -288 38 -25 17 -52 20
-225 23 -108 2 -227 8 -264 14 -45 7 -73 7 -85 0 -49 -25 -637 -8 -703 21 -25
11 -86 17 -210 22 -96 3 -196 11 -222 18 -34 8 -63 9 -105 1 -45 -8 -68 -7
-105 3 -59 18 -107 19 -289 5 -107 -9 -154 -9 -175 -1 -16 7 -78 13 -139 15
-60 1 -123 8 -140 15 -16 7 -75 16 -130 20 -168 14 -298 29 -347 41 -36 8 -61
8 -98 -1 -43 -10 -57 -9 -102 7 -45 15 -85 18 -258 18 -289 0 -424 12 -580 51
-30 8 -82 14 -117 14 -39 0 -91 9 -140 25 -43 14 -92 25 -109 25 -16 0 -57 10
-90 23 -117 46 -291 77 -435 77 -60 0 -108 6 -155 21 -56 18 -84 20 -149 15
-186 -14 -236 -14 -355 0 -69 8 -150 19 -180 25 -123 22 -256 32 -460 36 -362
6 -438 4 -495 -13 -48 -13 -57 -13 -82 0 -33 16 -256 38 -285 27 -11 -4 -52
-3 -91 2 -40 5 -93 9 -119 8 -29 -1 -61 5 -80 16 -29 15 -77 17 -428 19 -217
1 -453 3 -523 5 -71 2 -130 3 -132 1z m-6783 -8408 c50 -31 58 -41 58 -71 0
-16 -13 -31 -40 -48 -24 -15 -40 -33 -40 -45 0 -33 -23 -70 -47 -76 -15 -4
-51 5 -99 25 -69 29 -82 31 -174 29 -90 -3 -101 -1 -127 20 -15 12 -40 30 -55
40 -16 9 -26 21 -25 26 4 13 65 34 100 35 15 1 49 12 75 25 26 13 67 27 92 31
25 4 56 14 69 22 30 19 118 32 148 22 12 -5 41 -20 65 -35z m-1605 -1597 c15
-13 51 -36 78 -52 72 -40 87 -55 74 -72 -6 -7 -19 -13 -28 -13 -9 0 -29 -9
-46 -20 -16 -11 -50 -29 -74 -40 l-44 -20 6 -48 c6 -54 -3 -78 -28 -69 -9 4
-32 0 -51 -8 -45 -19 -68 -8 -84 41 -20 59 -5 139 34 182 18 21 36 51 40 67
10 39 44 75 72 75 12 0 35 -10 51 -23z"/>
<path d="M9370 12931 c-41 -16 -80 -27 -86 -24 -23 9 -135 -27 -178 -56 l-46
-32 1 -97 c0 -53 4 -119 10 -147 5 -27 16 -102 24 -165 9 -63 24 -136 35 -162
13 -30 22 -82 26 -140 5 -83 25 -164 53 -215 5 -10 12 -30 15 -44 9 -42 57
-87 102 -94 21 -4 52 -16 67 -27 16 -11 72 -48 125 -83 54 -35 118 -81 145
-102 72 -58 233 -215 246 -240 6 -13 24 -25 39 -29 48 -10 72 -23 72 -39 0 -9
7 -26 15 -39 14 -21 14 -28 0 -67 -26 -70 -34 -111 -35 -164 0 -27 -7 -72 -15
-99 -9 -30 -13 -64 -9 -85 10 -52 48 -133 73 -155 11 -11 21 -31 21 -46 0 -17
19 -52 50 -94 27 -37 57 -81 66 -98 23 -44 96 -112 148 -136 39 -19 46 -27 62
-77 15 -48 25 -63 71 -96 43 -33 53 -45 53 -70 0 -34 13 -41 100 -57 78 -14
113 4 240 127 58 56 125 113 150 128 71 41 131 90 155 125 12 18 46 48 76 68
91 60 93 67 96 400 1 221 5 293 16 320 8 19 18 55 22 79 17 103 10 97 275 224
24 12 76 52 114 89 63 62 68 70 62 99 -7 36 7 59 36 59 35 0 117 52 137 86 11
18 38 44 60 58 50 32 70 89 47 133 -10 20 -12 50 -9 103 6 106 8 112 48 139
47 32 64 67 72 144 4 48 2 71 -11 95 -9 17 -16 48 -16 70 0 44 -10 60 -65 96
-26 17 -53 26 -80 26 -48 0 -152 34 -180 60 -11 10 -57 39 -103 64 l-83 47
-59 -12 c-54 -10 -65 -9 -134 15 -117 40 -188 31 -263 -34 -48 -40 -143 -100
-161 -100 -7 0 -30 -11 -50 -25 -20 -14 -42 -25 -48 -25 -6 0 -21 -12 -35 -26
-34 -37 -151 -104 -180 -104 -18 0 -29 8 -37 25 -12 25 -95 85 -118 85 -32 0
-297 139 -337 177 -18 17 -54 43 -82 57 -27 15 -61 33 -75 41 -14 8 -53 26
-88 41 -61 26 -63 27 -165 15 -84 -9 -121 -9 -207 4 -58 8 -121 19 -140 25
-45 13 -43 13 -130 -19z m747 -348 c29 -29 65 -59 80 -67 27 -14 92 -81 178
-181 21 -26 56 -59 76 -73 21 -15 45 -39 53 -54 27 -45 103 -88 156 -88 32 0
52 6 62 18 23 26 50 81 44 91 -11 16 21 33 42 22 30 -16 105 -41 125 -41 9 0
62 23 116 51 79 41 119 70 193 141 108 103 115 108 161 108 35 0 116 -49 142
-87 7 -11 32 -27 54 -37 39 -18 41 -18 80 2 48 25 67 21 74 -18 4 -17 27 -48
57 -76 l52 -48 -7 -71 c-10 -110 -36 -226 -61 -271 -14 -23 -41 -50 -65 -63
-23 -13 -50 -38 -61 -57 -18 -31 -103 -84 -136 -84 -7 0 -44 -13 -82 -30 -49
-21 -84 -30 -124 -30 -48 0 -61 -5 -105 -37 -32 -24 -51 -46 -51 -58 0 -19
-10 -38 -54 -99 -15 -22 -16 -31 -7 -54 6 -15 11 -48 10 -72 0 -25 4 -70 10
-100 11 -55 10 -74 -11 -161 -9 -38 -8 -56 6 -98 12 -37 14 -57 6 -71 -5 -10
-10 -43 -10 -72 -1 -29 -6 -63 -13 -74 -20 -35 -97 -94 -123 -94 -31 0 -73
-40 -80 -77 -11 -54 -56 -106 -109 -125 -65 -24 -93 -25 -135 -3 -46 23 -157
132 -164 161 -8 29 -106 118 -173 156 -29 16 -56 34 -59 40 -4 6 -8 42 -10 81
-4 62 0 78 27 138 29 63 31 73 25 146 -3 43 -8 123 -11 178 -5 89 -9 104 -34
140 -16 22 -47 53 -70 68 -32 22 -41 35 -41 56 0 48 -32 78 -99 89 -71 13
-136 44 -172 83 -15 16 -34 29 -42 29 -38 0 -149 63 -213 120 l-68 62 -55 -6
c-31 -4 -61 -3 -67 1 -20 14 -34 51 -34 88 0 20 -7 49 -15 66 -10 18 -15 52
-14 87 1 31 -4 77 -10 102 -7 25 -15 70 -18 102 -5 52 -3 57 20 72 13 9 49 21
78 26 30 4 71 16 91 24 21 9 60 16 88 16 28 0 63 6 78 14 15 7 45 17 67 20 22
4 50 13 62 19 13 7 66 12 129 13 l108 0 53 -53z"/>
<path d="M13300 11973 c-30 -8 -60 -19 -67 -25 -7 -5 -18 -35 -24 -66 -7 -31
-23 -78 -36 -104 -34 -67 -47 -191 -35 -325 6 -59 8 -143 5 -186 -4 -53 -1
-95 10 -135 25 -93 29 -147 15 -212 -11 -55 -10 -64 7 -96 10 -19 36 -51 58
-71 35 -31 44 -35 78 -30 50 7 95 40 108 80 13 40 7 267 -8 295 -28 53 10 100
72 88 41 -8 86 7 154 50 28 19 69 41 91 49 49 20 81 66 109 155 17 55 19 78
13 156 -4 51 -12 98 -16 106 -5 9 -41 50 -80 92 -71 76 -72 77 -135 86 -42 6
-67 15 -74 26 -48 80 -120 100 -245 67z m246 -298 c54 -35 83 -75 85 -117 1
-13 -10 -50 -24 -83 l-26 -60 -76 -8 c-85 -8 -115 0 -147 44 -19 25 -19 27 0
125 17 93 21 100 52 122 41 28 62 24 136 -23z"/>
<path d="M16022 11970 c-58 -36 -63 -59 -51 -237 5 -87 12 -183 13 -213 2 -35
13 -75 30 -107 14 -29 26 -58 26 -66 0 -7 18 -40 40 -74 50 -78 102 -105 196
-105 42 0 69 -4 78 -14 19 -18 30 -88 18 -111 -5 -10 -13 -43 -17 -73 -9 -67
-29 -120 -47 -120 -15 0 -105 94 -161 167 -21 29 -54 62 -72 73 -17 11 -48 35
-68 54 -20 19 -51 37 -69 41 -18 4 -47 16 -64 26 -17 10 -43 19 -57 19 -36 0
-40 12 -18 56 53 107 53 110 30 172 -12 31 -23 82 -24 112 -6 101 -13 118 -69
159 -28 21 -57 46 -65 55 -8 9 -44 33 -80 54 -58 32 -74 37 -131 37 -81 0
-160 -28 -212 -75 l-39 -35 -6 -205 c-3 -113 -10 -213 -14 -222 -5 -9 -9 -79
-9 -156 0 -115 -3 -141 -15 -146 -26 -10 -41 4 -63 57 -30 72 -52 179 -52 255
0 35 -5 72 -10 82 -6 10 -15 124 -21 252 -13 261 -12 257 -91 278 -32 9 -45 8
-75 -7 -20 -10 -46 -30 -57 -46 -18 -24 -19 -32 -9 -70 14 -51 0 -72 -60 -88
-46 -12 -87 -49 -87 -78 0 -11 -4 -30 -9 -43 -35 -91 -50 -121 -87 -179 -48
-72 -64 -109 -64 -143 0 -12 -11 -33 -25 -46 -14 -13 -25 -31 -25 -39 0 -9
-16 -40 -35 -68 -19 -29 -35 -59 -35 -66 0 -8 -8 -25 -19 -38 -10 -13 -30 -46
-44 -74 -14 -27 -37 -61 -51 -74 -22 -21 -28 -22 -42 -10 -14 11 -15 30 -9
144 4 71 6 192 5 268 -2 175 -18 233 -73 260 -36 18 -77 16 -77 -5 0 -5 -11
-23 -25 -40 -23 -28 -25 -36 -25 -144 0 -63 5 -135 11 -160 11 -41 10 -48 -11
-76 -16 -22 -25 -53 -32 -112 -5 -45 -18 -111 -30 -148 -17 -54 -20 -83 -15
-148 3 -44 10 -87 17 -95 6 -8 32 -26 57 -41 44 -26 46 -26 88 -10 23 9 49 24
57 34 14 16 43 89 55 140 8 31 35 27 58 -11 25 -40 100 -80 135 -72 37 10 57
32 65 73 10 57 19 62 103 62 57 0 85 5 118 22 24 12 44 25 44 29 0 15 169 159
182 154 7 -3 19 -19 26 -35 8 -17 19 -30 26 -30 17 0 56 -43 56 -62 0 -8 -7
-35 -15 -58 -14 -40 -14 -46 5 -85 11 -23 20 -50 20 -61 0 -10 13 -42 29 -70
29 -49 76 -84 115 -84 20 0 62 57 79 106 8 23 24 43 38 50 89 41 104 53 142
107 38 55 41 62 39 127 -1 46 3 72 12 79 9 8 69 10 185 7 191 -5 218 -13 265
-82 12 -18 53 -66 90 -105 48 -51 66 -77 63 -91 -13 -46 73 -81 125 -51 38 22
102 109 94 129 -10 26 24 28 52 3 15 -14 47 -40 71 -58 43 -33 45 -34 70 -18
14 9 42 25 61 36 76 42 110 115 86 186 -8 22 -19 98 -25 170 -13 152 -16 146
93 235 37 30 80 74 96 98 15 23 42 58 58 76 40 46 45 66 28 107 -19 45 -41 63
-100 83 -82 28 -135 -3 -185 -107 -22 -46 -131 -147 -157 -147 -8 0 -27 -6
-42 -14 -15 -8 -44 -17 -64 -21 -32 -6 -40 -3 -75 29 -40 35 -40 36 -51 143
-11 115 -8 166 14 198 8 11 14 28 14 38 0 26 -69 136 -89 141 -40 10 -100 3
-129 -14z m-516 -339 c81 -37 137 -150 104 -212 -6 -10 -33 -30 -59 -44 -27
-13 -57 -36 -68 -51 -17 -24 -23 -25 -66 -19 -25 4 -53 12 -62 19 -13 10 -13
14 1 41 11 21 14 44 10 76 -5 35 -3 49 9 59 10 8 15 31 15 71 0 45 4 60 18 68
25 15 52 13 98 -8z m-676 -191 c17 -17 19 -30 15 -127 -4 -118 6 -153 47 -153
20 0 21 -1 6 -16 -14 -14 -21 -14 -52 -3 -33 12 -41 11 -79 -9 -23 -12 -61
-26 -85 -32 -24 -6 -46 -18 -49 -26 -3 -7 -16 -14 -30 -14 -23 0 -24 2 -18 48
7 50 48 117 99 162 24 23 29 35 31 80 1 46 6 57 34 82 37 33 54 35 81 8z m457
-166 c-3 -3 -12 -4 -19 -1 -8 3 -5 6 6 6 11 1 17 -2 13 -5z m206 -101 c4 -2 7
-13 7 -23 0 -13 -11 -22 -36 -29 -49 -14 -74 0 -74 40 l0 31 48 -7 c26 -4 50
-9 55 -12z m381 -19 c19 -18 13 -34 -12 -34 -27 0 -45 17 -39 34 8 20 31 20
51 0z m-287 -10 c4 -12 -52 -74 -66 -74 -5 0 -11 10 -14 21 -11 40 67 91 80
53z m-437 -334 c-6 -11 -13 -20 -15 -20 -3 0 -5 9 -5 20 0 11 7 20 15 20 13 0
14 -4 5 -20z"/>
<path d="M12523 11890 c-45 -20 -83 -69 -83 -106 0 -39 -37 -138 -74 -199 -20
-33 -39 -76 -42 -95 -4 -19 -15 -53 -24 -75 -9 -22 -20 -64 -24 -93 -4 -30
-16 -76 -26 -103 -11 -27 -23 -75 -26 -107 -4 -31 -13 -69 -20 -84 -8 -15 -14
-39 -14 -53 0 -15 -11 -54 -24 -88 -30 -76 -38 -124 -37 -201 1 -69 22 -111
70 -143 62 -42 142 -6 152 67 4 27 13 48 28 59 24 18 40 73 41 134 0 67 38
117 89 117 12 0 39 16 61 36 38 35 42 36 94 30 30 -4 60 -13 69 -19 18 -15 54
-83 61 -119 7 -31 29 -45 101 -64 69 -19 119 -17 144 4 17 14 22 33 27 107 l7
91 -56 42 c-59 46 -81 81 -92 152 -4 25 -15 61 -25 80 -51 100 -60 128 -49
159 8 24 7 35 -5 53 -9 12 -16 28 -16 36 0 7 -9 25 -19 40 -22 30 -45 176 -36
215 13 51 -105 147 -180 147 -16 0 -49 -9 -72 -20z m162 -400 c21 -8 24 -14
19 -34 -7 -28 23 -53 72 -62 35 -6 44 -14 18 -15 -10 -1 -28 -2 -39 -3 -14 -1
-25 -17 -41 -64 -28 -81 -43 -97 -120 -121 -106 -35 -163 -23 -125 25 10 13
22 41 26 61 4 21 18 64 31 95 13 32 24 65 24 74 0 47 69 69 135 44z"/>
<path d="M13585 8007 c-130 -58 -150 -81 -140 -160 13 -104 21 -121 80 -164
59 -44 129 -61 199 -48 37 7 149 -19 241 -57 28 -11 84 -29 125 -39 41 -10 91
-24 110 -31 65 -22 272 -54 406 -62 73 -5 147 -19 196 -38 15 -5 82 -11 150
-12 82 -1 131 -6 147 -15 13 -7 51 -17 85 -21 34 -5 106 -16 161 -25 194 -32
261 -35 445 -20 96 8 210 15 255 15 90 0 139 18 193 68 26 24 32 38 32 72 0
46 -26 134 -44 149 -21 18 -234 25 -346 11 -221 -25 -602 -6 -703 36 -41 18
-86 26 -155 31 -67 4 -106 12 -128 25 -29 17 -37 18 -98 5 -54 -11 -71 -11
-97 0 -17 7 -53 13 -79 13 -56 0 -165 22 -260 51 -39 12 -99 21 -151 23 -69 1
-93 6 -125 25 -21 13 -76 36 -121 51 -44 16 -118 52 -163 80 -98 63 -140 70
-215 37z"/>
<path d="M3075 6000 c-27 -10 -62 -19 -77 -19 -14 -1 -34 -4 -43 -7 -19 -8
-75 -123 -75 -156 0 -12 -16 -49 -36 -81 -26 -42 -38 -76 -44 -120 -4 -34 -20
-98 -35 -142 -23 -68 -27 -98 -28 -202 -2 -110 0 -124 19 -145 11 -12 27 -33
35 -46 8 -13 43 -36 79 -52 41 -18 70 -37 77 -53 17 -33 28 -41 104 -71 63
-25 68 -25 115 -12 55 16 173 21 249 11 43 -6 57 -3 98 20 50 29 77 59 77 87
0 9 20 40 45 68 51 58 57 91 21 115 -29 19 -143 23 -175 6 -25 -14 -96 -35
-188 -56 -62 -14 -63 -14 -135 16 -91 39 -124 62 -144 102 -21 39 -14 121 14
174 11 21 32 70 46 109 22 57 38 82 81 122 29 27 61 65 71 83 9 19 25 44 35
57 30 38 33 78 10 111 -12 16 -21 34 -21 39 0 6 -14 22 -31 36 -36 31 -73 32
-144 6z"/>
<path d="M4611 5255 c-40 -18 -76 -37 -81 -41 -8 -9 -12 -34 -26 -150 -6 -47
-4 -53 26 -88 41 -47 63 -58 125 -67 177 -26 295 -48 325 -62 37 -16 96 -29
220 -47 41 -7 98 -18 125 -25 28 -7 77 -18 110 -25 33 -7 94 -23 135 -35 129
-39 206 -55 268 -55 33 0 82 -4 109 -10 131 -26 217 -40 250 -40 20 0 73 -11
117 -24 45 -14 113 -32 151 -41 39 -9 74 -21 79 -26 6 -5 32 -9 58 -9 27 0 61
-6 76 -14 15 -7 60 -16 100 -20 40 -3 90 -13 110 -22 20 -9 75 -29 122 -46 47
-16 113 -45 148 -65 47 -26 86 -38 151 -48 49 -7 102 -20 119 -29 17 -9 39
-16 49 -16 10 0 34 -10 53 -22 25 -15 61 -23 129 -29 70 -6 106 -15 142 -34
36 -18 64 -25 107 -25 36 0 66 -6 80 -16 13 -9 43 -17 67 -19 28 -2 63 -14 92
-32 31 -19 90 -39 168 -57 66 -16 138 -37 161 -47 26 -12 64 -19 100 -19 44 0
72 -7 109 -26 88 -46 152 -64 200 -57 40 5 48 2 80 -26 20 -17 44 -31 55 -31
11 0 46 -13 78 -30 33 -16 74 -30 91 -30 22 0 39 -9 58 -30 15 -17 36 -30 49
-30 13 0 38 -6 56 -14 57 -25 171 -45 219 -39 45 5 47 4 79 -36 45 -55 83 -67
155 -46 63 19 85 38 115 102 15 32 19 54 14 79 -14 76 75 100 178 48 28 -14
68 -27 88 -29 21 -2 49 -11 63 -19 35 -23 191 -56 270 -56 48 0 94 -9 158 -30
64 -21 113 -30 167 -32 79 -2 176 11 202 27 36 22 110 89 115 106 3 10 -6 52
-21 94 -24 67 -31 78 -65 96 -28 14 -39 26 -39 42 0 27 -38 67 -63 67 -9 0
-25 -17 -37 -40 -11 -21 -28 -43 -38 -48 -23 -13 -261 -14 -390 -3 -85 8 -110
14 -143 35 -23 15 -53 26 -73 26 -19 0 -61 7 -93 15 -43 11 -95 14 -203 11
-80 -3 -148 -5 -152 -5 -3 -1 -17 -28 -30 -62 -24 -64 -47 -83 -83 -69 -11 4
-54 13 -95 19 -41 7 -100 21 -130 32 -30 11 -76 25 -103 30 -27 5 -75 20 -106
32 -131 55 -351 121 -496 149 -27 6 -70 19 -95 31 -25 11 -74 24 -110 27 -36
4 -85 12 -110 18 -25 6 -78 16 -119 22 -40 5 -83 17 -94 25 -12 8 -42 15 -67
15 -32 0 -60 9 -95 30 -28 17 -65 30 -83 30 -19 0 -67 14 -109 30 -41 17 -85
30 -98 30 -13 0 -54 16 -92 36 -73 39 -173 79 -238 95 -21 6 -44 14 -50 18 -9
7 -63 24 -260 83 -38 12 -90 31 -115 43 -41 20 -103 36 -217 55 -23 4 -49 12
-57 19 -8 7 -44 17 -78 21 -35 5 -90 14 -123 20 -33 6 -85 16 -115 22 -30 6
-77 19 -104 30 -36 15 -62 19 -93 14 -29 -4 -57 -1 -80 9 -19 8 -55 15 -78 15
-24 0 -96 10 -162 21 -65 12 -140 25 -168 29 -27 4 -70 12 -95 18 -25 7 -84
18 -131 26 -58 10 -99 23 -124 40 -21 14 -50 26 -64 26 -14 0 -58 9 -96 20
-38 11 -83 20 -98 20 -15 0 -40 6 -55 14 -15 7 -41 16 -58 19 -17 3 -56 17
-87 31 -31 15 -64 26 -74 26 -22 0 -165 50 -209 73 -29 15 -33 14 -103 -18z"/>
<path d="M29580 3611 c0 -10 6 -24 14 -30 12 -10 17 -8 26 9 13 25 6 40 -21
40 -12 0 -19 -7 -19 -19z"/>
<path d="M29572 3538 c-17 -17 -15 -48 4 -55 22 -8 47 8 50 32 5 31 -31 46
-54 23z"/>
<path d="M17980 2873 c-57 -50 -59 -57 -106 -238 -15 -56 -14 -147 1 -187 17
-44 117 -40 185 7 52 36 144 144 176 206 16 33 24 65 24 100 0 45 -4 55 -34
85 -25 25 -43 34 -67 34 -19 1 -45 7 -59 15 -43 24 -76 18 -120 -22z"/>
</g>
</svg>
